<?xml version="1.0" encoding="UTF-8"?>
<!DOCTYPE svg PUBLIC "-//W3C//DTD SVG 1.1//EN" "http://www.w3.org/Graphics/SVG/1.1/DTD/svg11.dtd">
<!-- Creator: CorelDRAW -->
<svg xmlns="http://www.w3.org/2000/svg" xml:space="preserve" width="330px" height="127px" style="shape-rendering:geometricPrecision; text-rendering:geometricPrecision; image-rendering:optimizeQuality; fill-rule:evenodd; clip-rule:evenodd"
viewBox="0 0 330 120"
 xmlns:xlink="http://www.w3.org/1999/xlink">
 <defs>
  <style type="text/css">
   <![CDATA[
    .fil5 {fill:none}
    .fil3 {fill:#00923F}
    .fil0 {fill:#28166F}
    .fil4 {fill:#E77817}
    .fil8 {fill:#1F1A17;fill-rule:nonzero}
    .fil1 {fill:#28166F;fill-rule:nonzero}
    .fil7 {fill:#DA251D;fill-rule:nonzero}
    .fil6 {fill:white;fill-rule:nonzero}
    .fil2 {fill:black;fill-opacity:0.000000}
   ]]>
  </style>
     <clipPath id="id0">
      <path d="M165 14.5848c10.6174,0 19.2283,8.6105 19.2283,19.2284 0,10.6178 -8.6109,19.2283 -19.2283,19.2283 -10.6179,0 -19.2283,-8.6105 -19.2283,-19.2283 0,-10.6179 8.6104,-19.2284 19.2283,-19.2284z"/>
     </clipPath>
     <clipPath id="id1">
      <path d="M165 14.5848c10.6174,0 19.2283,8.6105 19.2283,19.2284 0,10.6178 -8.6109,19.2283 -19.2283,19.2283 -10.6179,0 -19.2283,-8.6105 -19.2283,-19.2283 0,-10.6179 8.6104,-19.2284 19.2283,-19.2284z"/>
     </clipPath>
 </defs>
 <g id="Layer_x0020_1">
  <metadata id="CorelCorpID_0Corel-Layer"/>
  <g id="_245426200">
   <g>
    <path id="_243340128" class="fil0" d="M164.509 7.1314c14.745,-0.2571 26.9858,11.5573 27.2495,26.3 0.2633,14.7423 -11.548,26.9762 -26.293,27.2333 -14.7449,0.2571 -26.9858,-11.5572 -27.2495,-26.3 -0.2633,-14.7423 11.5481,-26.9762 26.293,-27.2333zm-0.0772 -4.3272c1.0565,-0.0184 2.1021,0.0167 3.1341,0.1023l0.3339 3.0398 2.8034 0.5002c0.1671,0.0298 0.5445,-2.0978 0.9604,-2.9205 2.2952,0.5068 4.4992,1.2685 6.5785,2.2549l-0.8898 2.8682 2.2952 1.2957c0.2444,0.1382 1.2826,-1.5265 2.1013,-2.2149 1.9153,1.2321 3.6897,2.669 5.289,4.2798l-1.7937 2.3628 2.0232 2.1364c0.2505,0.2641 1.7217,-1.2369 2.4009,-1.491 1.4072,1.8323 2.6164,3.8261 3.5931,5.948l-2.4668 1.2215 0.9438 2.9082c0.0812,0.2501 2.1149,-0.4809 2.9341,-0.4699 0.6507,2.0732 1.0904,4.2394 1.2922,6.4741l-2.9556 0.9153 0.2528 3.4676c0.0316,0.4374 1.9446,0.3357 2.7506,0.6551 -0.165,2.3106 -0.5853,4.5549 -1.2325,6.7035l-2.863 -0.4721 -1.1873 2.9306c-0.1737,0.4295 2.1658,0.7455 2.6936,1.1921 -0.9683,2.1746 -2.1798,4.2201 -3.5997,6.1012l-2.5132 -1.4318 -2.0553 2.2479c-0.1671,0.1825 1.5156,1.5918 1.8828,2.2952 -1.6928,1.7077 -3.59,3.2175 -5.6365,4.5163l-1.7884 -2.5782 -2.2592 1.3224c-0.1707,0.0996 0.9622,1.9003 1.1947,2.8569 -2.0964,1.0324 -4.3377,1.8367 -6.6833,2.3781l-0.9583 -2.9823 -2.7884 0.5019 -0.0057 3.1074 -6.88 -0.0382 0.0435 -3.1179 -2.9091 -0.6037c-0.3141,-0.0654 -0.6402,2.2948 -1.0552,3.0016 -2.2382,-0.5629 -4.3838,-1.3716 -6.4044,-2.3952l1.0004 -2.9174 -2.3869 -1.4958c-0.4243,-0.2659 -1.462,1.7713 -2.1096,2.3452 -1.8885,-1.29 -3.63,-2.7831 -5.192,-4.4483l1.9468 -2.2737 -1.4703 -1.7691c-0.1492,-0.1799 -1.9696,1.243 -2.6181,1.5032 -1.4098,-1.863 -2.6156,-3.8897 -3.5831,-6.0458l2.7125 -1.3427 -1.1403 -2.701c-0.197,-0.4673 -2.4067,0.6186 -2.8661,0.6366 -0.677,-2.1583 -1.1246,-4.418 -1.3141,-6.7496l3.1692 -0.4673 -0.1167 -2.164c-0.0127,-0.2378 -1.9152,-0.4941 -3.0494,-0.5656 0.0504,-2.3382 0.3576,-4.6172 0.8946,-6.808l2.9099 0.2935 1.0004 -2.9007c0.0992,-0.2874 -2.0631,-1.4659 -2.3417,-1.8714 0.8552,-2.0775 1.9144,-4.0441 3.1583,-5.8646l2.5374 1.3563 1.5932 -1.8192c0.2049,-0.2343 -1.6305,-1.7011 -1.8955,-2.4233 1.5269,-1.7433 3.25,-3.3018 5.1473,-4.6335l2.0367 2.2479 2.3966 -1.7034c0.3401,-0.2417 -0.9223,-1.9196 -1.0258,-2.7028 2.0367,-1.0645 4.2631,-1.9288 6.5916,-2.5422l1.039 2.9261 2.8139 -0.5791c0.2093,-0.043 -0.176,-2.2584 -0.0816,-3.0263 1.2439,-0.1759 2.4053,-0.3413 3.6681,-0.3633l-0.0004 0z"/>
    <path id="_243327672" class="fil1" d="M149.172 52.5334l0.512 -0.0772c0.0746,0.1992 0.1435,0.3247 0.2062,0.3756 0.0483,0.039 0.1049,0.0544 0.169,0.046 0.064,-0.0083 0.1175,-0.0373 0.1584,-0.0877 0.0807,-0.0992 0.0596,-0.2589 -0.0619,-0.4783 -0.0869,-0.1632 -0.1457,-0.2953 -0.1764,-0.3958 -0.0307,-0.1004 -0.036,-0.2101 -0.0162,-0.3282 0.0201,-0.1184 0.0684,-0.2237 0.1448,-0.3185 0.1404,-0.1733 0.3325,-0.2677 0.5774,-0.283 0.2439,-0.0149 0.4616,0.0548 0.6524,0.2097 0.2098,0.1698 0.3366,0.4357 0.3813,0.7986l-0.5576 0.1022c-0.0211,-0.236 -0.0878,-0.3997 -0.1993,-0.4901 -0.0526,-0.0426 -0.1219,-0.0601 -0.2079,-0.0527 -0.086,0.0084 -0.1497,0.0373 -0.1913,0.0891 -0.0856,0.1058 -0.0496,0.2887 0.1083,0.5489 0.0904,0.1496 0.1457,0.2659 0.1659,0.3502 0.0206,0.0838 0.0175,0.179 -0.0088,0.2856 -0.0263,0.1075 -0.0728,0.2014 -0.1382,0.2821 -0.1457,0.1799 -0.3221,0.2782 -0.53,0.2953 -0.2076,0.0176 -0.4055,-0.0504 -0.595,-0.204 -0.2233,-0.1808 -0.355,-0.4032 -0.3931,-0.6669l0 -0.0009zm-0.9399 -0.4445l-0.4541 -0.4866 0.8086 -1.4203 -1.4738 0.7073 -0.4392 -0.4708 1.677 -2.0175 0.365 0.3914 -1.1842 1.4151 1.7301 -0.8302 0.1742 0.1869 -0.9504 1.6884 1.4984 -1.1013 0.3707 0.3971 -2.1219 1.541 -0.0004 -0.0005zm-2.795 -3.1232l-0.261 -0.3462 1.4396 -2.4141 0.3387 0.4493 -0.2808 0.477 0.6002 0.7963 0.5314 -0.1452 0.3378 0.4475 -2.7054 0.735 -0.0005 0.0004zm0.5498 -0.6866l0.7955 -0.2194 -0.3712 -0.4919 -0.4243 0.7117 0 -0.0004zm-1.8341 -1.1176l-0.2786 -0.4822 1.7687 -1.0206 -0.3835 -0.6643 0.4857 -0.2804 0.6622 1.1461 -2.2545 1.301 0 0.0004zm-0.974 -1.6708l-0.244 -0.5002 1.8358 -0.8947 -0.3365 -0.6893 0.5041 -0.2457 0.5805 1.1895 -2.3395 1.1404 -0.0004 0zm-0.4028 -4.3334l0.2773 -0.4686 -0.3528 -0.1759 0.2084 -0.3502c0.0092,0.0018 0.0676,0.0281 0.1751,0.0777 0.107,0.0496 0.165,0.0821 0.1733,0.0978l0.3708 -0.6327 0.2071 0.6012 -0.1637 0.2847c0.1773,0.1532 0.2975,0.2659 0.362,0.3388 0.0636,0.0732 0.1119,0.1544 0.1435,0.2461 0.0355,0.1036 0.0509,0.2176 0.0456,0.3427 -0.0057,0.125 -0.0478,0.2369 -0.1277,0.3352 -0.0803,0.0992 -0.1794,0.1689 -0.2979,0.2097 -0.2703,0.0931 -0.5546,-0.0043 -0.8534,-0.2913 -0.1347,0.2181 -0.2936,0.3593 -0.4774,0.4225 -0.154,0.0531 -0.3085,0.0373 -0.462,-0.0456 -0.1549,-0.0834 -0.2615,-0.2106 -0.3203,-0.3813 -0.0619,-0.1795 -0.0597,-0.3493 0.0083,-0.5077 0.0676,-0.1592 0.1817,-0.2658 0.3418,-0.3207 0.1325,-0.0456 0.2677,-0.0355 0.4059,0.0307 0.1382,0.0672 0.2505,0.129 0.3356,0.1878l0.0005 -0.0009zm-0.2014 0.3269c-0.1755,-0.1141 -0.3142,-0.1535 -0.4177,-0.118 -0.0601,0.0206 -0.1018,0.0553 -0.126,0.104 -0.0241,0.0491 -0.0254,0.1031 -0.0048,0.1623 0.0193,0.0562 0.0553,0.0961 0.1066,0.1185 0.0522,0.0228 0.1084,0.0237 0.1698,0.0026 0.0751,-0.0259 0.1655,-0.1158 0.2721,-0.2698l0 0.0004zm0.7362 -0.2847c-0.0048,0.0101 -0.025,0.0434 -0.0601,0.0996 -0.0351,0.0561 -0.0605,0.1 -0.0759,0.132 0.1672,0.0948 0.3045,0.1233 0.4133,0.086 0.0527,-0.018 0.0922,-0.0544 0.1176,-0.1092 0.0259,-0.0553 0.0294,-0.111 0.0097,-0.1672 -0.0281,-0.0812 -0.115,-0.1759 -0.2615,-0.2826l-0.1431 0.2418 0 -0.0004zm-2.6545 -2.7827l-0.0698 -0.6617 1.501 -0.6481 -1.6028 -0.322 -0.0676 -0.6402 2.5541 -0.6029 0.0562 0.5318 -1.7981 0.4182 1.8815 0.3778 0.0267 0.2544 -1.7757 0.7767 1.86 0.0215 0.0566 0.5401 -2.6226 -0.0456 0.0005 0zm-0.3291 -3.2522l-0.0255 -1.4638 0.5156 -0.0092 0.0158 0.9035 0.5252 -0.0093 -0.0158 -0.9034 0.5077 -0.0088 0.0158 0.9035 0.5392 -0.0097 -0.0158 -0.9034 0.5156 -0.0092 0.0254 1.4637 -2.6028 0.0456 -0.0004 0.0005zm-0.0487 -2.2031l0.0772 -0.8846c0.0329,-0.3773 0.179,-0.6708 0.4379,-0.8801 0.258,-0.2098 0.5822,-0.2975 0.9719,-0.2633 0.3909,0.0342 0.6941,0.1803 0.9091,0.4388 0.2146,0.2584 0.305,0.5844 0.2703,0.9793l-0.0733 0.8368 -2.5931 -0.2269zm0.5392 -0.5195l1.602 0.14 0.0193 -0.2212c0.0202,-0.229 -0.0263,-0.4225 -0.1378,-0.5809 -0.1127,-0.1584 -0.315,-0.2505 -0.6068,-0.276 -0.1698,-0.0149 -0.3234,0.0079 -0.4612,0.0671 -0.1369,0.0593 -0.2347,0.1545 -0.2935,0.2861 -0.0583,0.1308 -0.093,0.2576 -0.1035,0.3791l-0.018 0.2058 -0.0005 0zm-0.215 -2.2873l0.1067 -0.5485 2.5554 0.4963 -0.1067 0.5484 -2.5554 -0.4962zm0.2098 -1.2124l0.1338 -0.5361 1.5449 0.3848c0.1439,0.036 0.2685,0.0245 0.376,-0.0334 0.1071,-0.0579 0.1764,-0.1509 0.2089,-0.2803 0.0373,-0.1492 0.0224,-0.2752 -0.0452,-0.3791 -0.0676,-0.104 -0.1812,-0.1756 -0.3418,-0.2155l-1.5182 -0.3782 0.1334 -0.5349 1.6358 0.4076c0.143,0.0356 0.283,0.1102 0.4194,0.2229 0.1356,0.1132 0.2256,0.2572 0.269,0.4318 0.0434,0.1751 0.0417,0.358 -0.0057,0.5489 -0.0864,0.3458 -0.2461,0.5752 -0.4791,0.6871 -0.233,0.1119 -0.4559,0.1413 -0.6687,0.0887l-1.6625 -0.4143zm0.8051 -3.0218l0.2497 -0.6169 1.6296 0.1321 -1.2641 -1.0364 0.2413 -0.5967 2.5383 0.666 -0.2005 0.4963 -1.7841 -0.4748 1.484 1.2163 -0.0957 0.2369 -1.9328 -0.1474 1.6322 0.8916 -0.2035 0.5037 -2.2939 -1.2707 -0.0005 0zm1.8872 -4.2521l0.4247 -0.6292c0.1773,-0.2628 0.3537,-0.405 0.5278,-0.4278 0.1751,-0.0224 0.3357,0.0158 0.4827,0.1149 0.093,0.0628 0.1597,0.133 0.2001,0.2115 0.0403,0.0777 0.0671,0.1782 0.0803,0.3006 0.1522,-0.1145 0.2992,-0.1689 0.4409,-0.1628 0.1426,0.0057 0.2708,0.0469 0.3844,0.1237 0.1983,0.1334 0.3071,0.3059 0.3256,0.5165 0.0188,0.2101 -0.0544,0.4387 -0.2207,0.6849l-0.4879 0.7226 -2.1584 -1.4549 0.0005 0zm0.6774 -0.2194l0.4717 0.3181 0.072 -0.1066c0.0535,-0.079 0.0728,-0.1624 0.0592,-0.2497 -0.0136,-0.0873 -0.0566,-0.1557 -0.1299,-0.2053 -0.0596,-0.0404 -0.1272,-0.0474 -0.2036,-0.0224 -0.0772,0.025 -0.1417,0.0768 -0.1948,0.1558l-0.0741 0.1097 -0.0005 0.0004zm0.8377 0.5647l0.5936 0.4002 0.1132 -0.1677c0.1729,-0.2562 0.1663,-0.4466 -0.0206,-0.5726 -0.1005,-0.0675 -0.1988,-0.089 -0.2953,-0.0627 -0.0965,0.0254 -0.1834,0.0965 -0.2619,0.2124l-0.129 0.1908 0 -0.0004zm-0.2207 -2.3466l0.3479 -0.4291 1.2373 1.0013c0.115,0.0935 0.2335,0.1356 0.355,0.1286 0.1215,-0.0071 0.2238,-0.0623 0.3076,-0.1659 0.0965,-0.1193 0.1369,-0.24 0.1198,-0.3629 -0.0171,-0.1228 -0.09,-0.2356 -0.2185,-0.3396l-1.2159 -0.9841 0.3471 -0.4283 1.3102 1.0601c0.1145,0.093 0.2097,0.2194 0.2856,0.3791 0.075,0.1597 0.0957,0.3282 0.0614,0.5046 -0.0346,0.1772 -0.1136,0.3422 -0.2378,0.4954 -0.2242,0.2768 -0.4664,0.4172 -0.7248,0.4203 -0.2585,0.0031 -0.473,-0.0645 -0.6433,-0.2023l-1.3316 -1.0776 0 0.0004zm2.9959 -3.0292l0.0325 0.5164c-0.2054,0.0566 -0.3361,0.1145 -0.3923,0.1724 -0.0434,0.0448 -0.0632,0.0996 -0.061,0.1641 0.0026,0.0645 0.0268,0.1203 0.0737,0.1654 0.0917,0.0887 0.2528,0.0821 0.4822,-0.0197 0.1707,-0.0724 0.3072,-0.1193 0.4103,-0.1413 0.1031,-0.0219 0.2128,-0.0175 0.3286,0.0123 0.1163,0.0303 0.2177,0.0878 0.305,0.172 0.1606,0.1549 0.2378,0.3545 0.2316,0.5994 -0.0061,0.2439 -0.0947,0.4545 -0.2654,0.6314 -0.1874,0.1939 -0.4638,0.297 -0.8293,0.3102l-0.0535 -0.5639c0.2374,-0.0004 0.4063,-0.0526 0.5059,-0.1557 0.0469,-0.0487 0.0706,-0.1159 0.0706,-0.2027 -0.0004,-0.086 -0.0241,-0.1523 -0.0719,-0.1984 -0.0979,-0.0943 -0.2839,-0.0745 -0.5564,0.0602 -0.1571,0.0767 -0.2777,0.1219 -0.3633,0.1342 -0.0856,0.0136 -0.1799,0.0022 -0.2839,-0.0333 -0.1049,-0.0356 -0.1944,-0.09 -0.2694,-0.1624 -0.1663,-0.1606 -0.2492,-0.3448 -0.2479,-0.5533 0.0009,-0.2079 0.086,-0.3992 0.2549,-0.5748 0.1997,-0.2066 0.4327,-0.3185 0.699,-0.333l0 0.0005zm0.2255 -0.5599l0.409 -0.3809 1.7757 1.903 -0.409 0.3808 -1.7757 -1.9029zm2.3514 -1.9789l0.4383 -0.3299 1.5669 2.0775 -0.434 0.3269 -1.9683 -0.6261 1.014 1.3448 -0.4467 0.3361 -1.5668 -2.0775 0.4401 -0.3313 1.9635 0.6151 -1.007 -1.3356zm1.0952 -0.7402l1.2426 -0.7757 0.2733 0.437 -0.7669 0.4787 0.2781 0.4449 0.7666 -0.4787 0.2689 0.43 -0.7669 0.4787 0.2856 0.4572 0.767 -0.4787 0.2733 0.437 -1.2426 0.7758 -1.3795 -2.2062 0.0005 0zm3.3254 -1.5484l-0.1461 0.4962c-0.2123,-0.0171 -0.3554,-0.0074 -0.4278,0.0277 -0.0557,0.0272 -0.0934,0.0719 -0.1132,0.1334 -0.0197,0.0614 -0.0158,0.1219 0.0127,0.1803 0.0562,0.115 0.2093,0.1637 0.4599,0.1461 0.1851,-0.0096 0.3295,-0.007 0.4339,0.0075 0.104,0.0144 0.2058,0.0561 0.3045,0.1241 0.0987,0.0685 0.1742,0.1567 0.2277,0.2659 0.0979,0.2006 0.1023,0.4147 0.0128,0.6424 -0.0895,0.2273 -0.2449,0.3949 -0.4656,0.5024 -0.2426,0.1185 -0.5375,0.1207 -0.8854,0.0079l0.1426 -0.548c0.2229,0.0807 0.3997,0.0895 0.5287,0.0267 0.0606,-0.0298 0.1062,-0.0851 0.1356,-0.1663 0.029,-0.0811 0.0294,-0.1513 0.0004,-0.2106 -0.0596,-0.1224 -0.2409,-0.1667 -0.5436,-0.1338 -0.1738,0.0184 -0.3028,0.0197 -0.3874,0.0022 -0.0852,-0.0167 -0.1698,-0.0592 -0.2554,-0.1281 -0.0864,-0.0694 -0.1518,-0.151 -0.1979,-0.2444 -0.1013,-0.208 -0.1158,-0.409 -0.0434,-0.6047 0.0719,-0.1952 0.2172,-0.3461 0.4361,-0.4528 0.2584,-0.1259 0.5156,-0.1513 0.7709,-0.0741zm1.9789 -0.8372l-0.1891 0.4818c-0.2102,-0.0351 -0.3532,-0.0382 -0.4283,-0.0097 -0.0579,0.0224 -0.0996,0.0636 -0.1241,0.1233 -0.025,0.0597 -0.0264,0.1202 -0.0031,0.1808 0.0456,0.1193 0.1944,0.1812 0.4454,0.1856 0.1851,0.0066 0.3286,0.0219 0.4313,0.0452 0.1026,0.0237 0.2,0.0737 0.2922,0.15 0.0926,0.0768 0.1601,0.1712 0.2036,0.2848 0.0803,0.2084 0.0658,0.4217 -0.0435,0.6411 -0.1088,0.2185 -0.2781,0.372 -0.5076,0.4598 -0.2523,0.0965 -0.5459,0.0733 -0.8828,-0.0693l0.19 -0.5336c0.2154,0.1001 0.3905,0.1237 0.5243,0.0728 0.0632,-0.0241 0.1132,-0.0754 0.1496,-0.154 0.036,-0.0781 0.0426,-0.1478 0.0184,-0.2101 -0.0487,-0.1268 -0.2255,-0.1874 -0.5296,-0.1808 -0.175,0.0031 -0.3031,-0.0066 -0.3861,-0.0316 -0.0829,-0.0237 -0.1641,-0.0741 -0.2431,-0.1501 -0.0803,-0.0767 -0.1382,-0.1636 -0.1755,-0.2606 -0.0829,-0.2159 -0.0798,-0.4177 0.0092,-0.6064 0.0887,-0.1882 0.2466,-0.3255 0.4744,-0.4129 0.2685,-0.1031 0.5269,-0.1057 0.7744,-0.0065l0 0.0004zm1.7081 -0.7797l0.8657 -0.1996c0.369,-0.0852 0.6933,-0.0373 0.9728,0.1439 0.2791,0.1803 0.4629,0.4616 0.5511,0.8424 0.0882,0.3822 0.043,0.7157 -0.1365,1 -0.1794,0.2839 -0.4624,0.4703 -0.8486,0.5594l-0.8187 0.1891 -0.5858 -2.5352zm0.6613 0.3523l0.3615 1.5656 0.2163 -0.05c0.2242,-0.0518 0.394,-0.1554 0.5103,-0.3107 0.1163,-0.1558 0.1409,-0.3765 0.0751,-0.6621 -0.0382,-0.1659 -0.1071,-0.3049 -0.2063,-0.4177 -0.0987,-0.1119 -0.2198,-0.1755 -0.3628,-0.1904 -0.1426,-0.015 -0.2738,-0.0093 -0.3932,0.0184l-0.2014 0.0465 0.0005 0.0004zm2.2105 -0.9438l1.4572 -0.1531 0.0539 0.5125 -0.899 0.0943 0.0548 0.5222 0.8991 -0.0944 0.0531 0.5046 -0.8991 0.0944 0.0566 0.5361 0.8991 -0.0943 0.0539 0.5125 -1.4571 0.1531 -0.2721 -2.5874 -0.0004 -0.0005zm1.9135 -0.2303l0.5669 -0.0101 0.6884 1.7182 0.6275 -1.741 0.569 -0.0101 -0.9376 2.6186 -0.4879 0.0083 -1.0268 -2.5839 0.0005 0zm3.0227 -0.0149l1.4615 0.1022 -0.0359 0.5142 -0.9017 -0.0631 -0.0369 0.5234 0.9017 0.0632 -0.0351 0.5059 -0.9021 -0.0632 -0.0377 0.5379 0.9016 0.0632 -0.0359 0.5138 -1.4616 -0.1022 0.1817 -2.5953 0.0004 0zm2.2193 0.2246l0.5485 0.0965 -0.3546 2.0101 0.7556 0.1333 -0.0974 0.552 -1.304 -0.2299 0.4519 -2.562zm1.4585 1.5783c0.093,-0.3725 0.2931,-0.6498 0.6007,-0.8319 0.3075,-0.1812 0.63,-0.23 0.9688,-0.1453 0.3742,0.0935 0.6537,0.2927 0.8376,0.5976 0.1838,0.3054 0.2295,0.645 0.1364,1.0176 -0.0925,0.3707 -0.2904,0.6476 -0.5936,0.8319 -0.3032,0.1843 -0.6393,0.2312 -1.0079,0.1391 -0.3677,-0.0917 -0.6406,-0.2892 -0.8174,-0.5919 -0.1773,-0.3028 -0.2185,-0.642 -0.1251,-1.0176l0.0005 0.0005zm1.4686 -0.4669c-0.2107,-0.0566 -0.3993,-0.0263 -0.5665,0.0917 -0.1667,0.1176 -0.2799,0.2949 -0.3392,0.5323 -0.0557,0.2237 -0.036,0.4264 0.0593,0.6063 0.0952,0.1804 0.2435,0.2958 0.4444,0.3458 0.212,0.0526 0.4011,0.0224 0.5674,-0.09 0.1663,-0.1132 0.2799,-0.2891 0.3391,-0.5274 0.0584,-0.2343 0.0413,-0.4387 -0.0509,-0.6129 -0.0917,-0.1742 -0.2435,-0.2892 -0.4541,-0.3458l0.0005 0zm2.1162 0.1681l0.8314 0.319c0.2229,0.0855 0.3782,0.2198 0.4651,0.4023 0.0869,0.1825 0.0895,0.38 0.0084,0.5919 -0.0536,0.1396 -0.1378,0.2593 -0.2532,0.3585 -0.1154,0.0992 -0.2523,0.1536 -0.412,0.1637 -0.1593,0.0092 -0.2879,-0.0031 -0.3848,-0.0378l-0.3067 -0.1088 -0.3607 0.9394 -0.5199 -0.1996 0.9328 -2.4291 -0.0004 0.0005zm0.3453 0.6336l-0.2387 0.6213 0.2036 0.0781c0.0877,0.0338 0.1742,0.0307 0.261,-0.0079 0.0869,-0.0391 0.1461,-0.1018 0.1795,-0.1883 0.0377,-0.0983 0.0316,-0.1882 -0.0176,-0.2698 -0.0491,-0.0812 -0.1395,-0.147 -0.2689,-0.1966l-0.1194 -0.0373 0.0005 0.0005zm2.1539 0.4102l0.5823 0.3225 -0.33 1.6002 1.1834 -1.1276 0.5633 0.3119 -0.971 2.437 -0.4681 -0.2593 0.6884 -1.7117 -1.3887 1.3238 -0.2238 -0.1237 0.3818 -1.8995 -1.0847 1.5103 -0.4752 -0.2633 1.5414 -2.1206 0.0009 0zm2.791 1.6731l1.2146 0.8187 -0.2883 0.4274 -0.7494 -0.5055 -0.2936 0.4353 0.7494 0.505 -0.2838 0.4203 -0.7495 -0.505 -0.3018 0.4471 0.7494 0.505 -0.2883 0.4274 -1.2145 -0.8187 1.4558 -2.157zm3.0956 2.4255l0.4203 0.3523 -1.673 1.9929 -0.4164 -0.3488 0.1676 -2.0578 -1.0833 1.29 -0.4283 -0.3594 1.6735 -1.9929 0.4221 0.3536 -0.1584 2.0504 1.0759 -1.2812 0 0.0009zm0.8604 0.9069l1.1715 1.3001 -0.4115 0.3703 -0.3993 -0.4431 -1.5234 1.3707 -0.3756 -0.4164 1.5234 -1.3707 -0.3967 -0.4401 0.4112 -0.3703 0.0004 -0.0005zm3.2886 4.4597l-0.534 0.3466c-0.0101,-0.3286 -0.0733,-0.5822 -0.1882,-0.759 -0.1154,-0.1777 -0.2681,-0.28 -0.459,-0.3067 -0.1913,-0.0272 -0.3896,0.0263 -0.5958,0.1601 -0.1953,0.1268 -0.3151,0.2835 -0.3589,0.4717 -0.0444,0.1874 -0.0057,0.3747 0.1162,0.5625 0.1067,0.1637 0.2997,0.3168 0.5805,0.4598l-0.5291 0.3432c-0.2519,-0.2001 -0.4331,-0.3857 -0.5441,-0.5564 -0.1909,-0.294 -0.2448,-0.613 -0.1628,-0.9578 0.0825,-0.3449 0.2786,-0.6178 0.5893,-0.8197 0.3159,-0.2053 0.6511,-0.2742 1.0061,-0.2071 0.355,0.0667 0.6287,0.2501 0.8231,0.5489 0.1255,0.1927 0.2106,0.4309 0.2571,0.7148l-0.0004 -0.0009zm0.4388 0.5287l0.2549 0.4994 -0.8942 0.4554 0.4186 0.8205 0.8942 -0.4554 0.2536 0.4975 -2.3194 1.1812 -0.254 -0.498 0.9219 -0.4695 -0.4186 -0.8205 -0.9219 0.4695 -0.2549 -0.4998 2.3193 -1.1811 0.0005 0.0008zm1.6046 3.4273l0.1483 0.4076 -2.0829 1.888 -0.1926 -0.5287 0.4081 -0.3742 -0.3414 -0.9368 -0.5502 -0.0167 -0.1918 -0.527 2.8025 0.0873 0 0.0005zm-0.7266 0.4958l-0.8249 -0.0224 0.211 0.5792 0.6139 -0.5564 0 -0.0004zm1.4418 1.7432l0.161 0.6459 -1.3962 0.8504 1.6323 0.0956 0.1557 0.6248 -2.4453 0.9522 -0.1294 -0.5191 1.7222 -0.6639 -1.9161 -0.1123 -0.0619 -0.2479 1.6507 -1.0162 -1.8446 0.2374 -0.1317 -0.527 2.6033 -0.3199zm0.6792 3.3457l0.0662 0.756c0.0277,0.3159 -0.0193,0.537 -0.1408,0.6647 -0.122,0.1273 -0.2707,0.1988 -0.4471,0.2141 -0.1119,0.0097 -0.208,-0.0026 -0.2887,-0.0386 -0.0808,-0.0351 -0.1646,-0.0961 -0.2519,-0.1829 -0.0461,0.1847 -0.1264,0.319 -0.2404,0.4036 -0.1141,0.0856 -0.2396,0.1339 -0.3765,0.1457 -0.2378,0.0206 -0.4313,-0.0447 -0.5783,-0.1966 -0.147,-0.1513 -0.2339,-0.3751 -0.2598,-0.6708l-0.0759 -0.8684 2.5936 -0.2268 -0.0004 0zm-0.3879 0.5967l-0.5669 0.0496 0.011 0.1281c0.0083,0.0952 0.0456,0.172 0.1114,0.2312 0.0658,0.0593 0.1422,0.0856 0.2304,0.0777 0.0715,-0.0061 0.1285,-0.043 0.172,-0.111 0.0443,-0.0676 0.0619,-0.1487 0.0535,-0.2435l-0.0114 -0.1321zm-1.007 0.0878l-0.713 0.0623 0.0176 0.2014c0.0267,0.308 0.1522,0.4519 0.3764,0.4322 0.1207,-0.0106 0.2106,-0.0558 0.2694,-0.1369 0.0588,-0.0803 0.0821,-0.1905 0.0698,-0.33l-0.0202 -0.229zm1.58 1.7511l-0.0254 1.4638 -0.5156 -0.0093 0.0158 -0.9034 -0.5252 -0.0092 -0.0158 0.9034 -0.5072 -0.0088 0.0158 -0.9034 -0.5392 -0.0092 -0.0158 0.9034 -0.5156 -0.0092 0.0254 -1.4637 2.6028 0.0456zm-0.064 2.0754l-0.0597 0.8534c-0.018,0.2598 -0.1013,0.4598 -0.2488,0.6016 -0.1478,0.1417 -0.3383,0.2036 -0.5713,0.1873 -0.1338,-0.0092 -0.2698,-0.0535 -0.408,-0.132 -0.1387,-0.0795 -0.2427,-0.215 -0.3115,-0.4063l-1.133 0.6493 0.0448 -0.6401 1.0513 -0.6016 0.0044 -0.0632 -1.0044 -0.0702 0.0391 -0.5594 2.5971 0.1816 0 -0.0004zm-0.5028 0.5309l-0.6766 -0.0474 -0.0084 0.1203c-0.0202,0.2913 0.0891,0.4457 0.3274,0.462 0.0978,0.007 0.1781,-0.0255 0.2408,-0.0979 0.0628,-0.0715 0.0983,-0.1746 0.108,-0.3093l0.0088 -0.1281 0 0.0004zm-1.2734 2.9464c0.3712,0.0991 0.645,0.304 0.8214,0.6147 0.176,0.3102 0.219,0.6336 0.1286,0.9706 -0.0996,0.372 -0.3041,0.648 -0.6125,0.8266 -0.3085,0.1786 -0.649,0.2181 -1.0206,0.1189 -0.3695,-0.0987 -0.6428,-0.3014 -0.8219,-0.6081 -0.1794,-0.3063 -0.2198,-0.6428 -0.1219,-1.0092 0.0983,-0.3659 0.3005,-0.6349 0.6064,-0.8065 0.3058,-0.1715 0.6463,-0.2071 1.0201,-0.107l0.0004 0zm0.4414 1.4756c0.0606,-0.2093 0.0334,-0.3984 -0.0816,-0.5674 -0.1145,-0.1685 -0.29,-0.2847 -0.5269,-0.3484 -0.2229,-0.0596 -0.4261,-0.0434 -0.6077,0.0488 -0.1821,0.0917 -0.3002,0.2382 -0.3537,0.4383 -0.0566,0.211 -0.0294,0.4001 0.0799,0.5682 0.1105,0.168 0.2847,0.2848 0.5221,0.3484 0.2334,0.0627 0.4379,0.0487 0.6139,-0.0399 0.1759,-0.0887 0.2939,-0.2383 0.354,-0.4476l0 -0.0004zm-0.1711 2.1188l-0.5248 1.3668 -0.4699 -0.1804 0.3256 -0.8472 -0.4967 -0.1905 -0.3256 0.8473 -0.4738 -0.1816 0.3238 -0.8438 -0.9899 -0.3795 0.201 -0.5235 2.4303 0.9324zm-1.3953 3.0819l-0.2795 0.484 -2.2544 -1.301 0.2795 -0.4839 2.2544 1.3009zm-1.5216 2.5085l-0.2988 0.4598 -2.1834 -1.4172 0.2958 -0.4554 2.0639 -0.0847 -1.4132 -0.9171 0.3045 -0.4686 2.1833 1.4173 -0.3001 0.4615 -2.0561 0.0931 1.4036 0.9109 0.0005 0.0004zm-0.8539 1.1294l-0.5831 0.67c-0.2484,0.2856 -0.5393,0.4375 -0.8719,0.455 -0.3321,0.018 -0.6458,-0.1013 -0.9411,-0.358 -0.2962,-0.2576 -0.4555,-0.5533 -0.4779,-0.889 -0.0215,-0.3348 0.0975,-0.652 0.3576,-0.9508l0.5516 -0.634 1.9648 1.7068zm-0.742 0.1035l-1.2136 -1.0539 -0.1457 0.1672c-0.1509,0.1737 -0.2273,0.3572 -0.2299,0.5511 -0.0022,0.1944 0.1075,0.3874 0.3287,0.5796 0.1285,0.1119 0.2663,0.1839 0.4124,0.2168 0.1457,0.0324 0.2808,0.0131 0.4054,-0.0588 0.1242,-0.0716 0.2269,-0.1536 0.3072,-0.2462l0.1355 -0.1558zm-1.1456 1.9829l-0.4019 0.3883 -1.8086 -1.8714 0.4019 -0.3879 1.8086 1.8714 0 -0.0004zm-1.5418 1.4225l-0.3274 0.2843 -2.5102 -1.2663 0.4248 -0.369 0.4962 0.2466 0.7529 -0.6538 -0.1821 -0.5195 0.4235 -0.3677 0.9223 2.6458 0 -0.0004zm-0.724 -0.4998l-0.2747 -0.7775 -0.4651 0.4041 0.7398 0.3734z"/>
    <path id="_243329712" class="fil1" d="M154.95 54.256l1.225 0.5195 0.8741 -1.0043 -0.1163 1.3255 1.225 0.5195 -1.2957 0.3006 -0.1162 1.3255 -0.6858 -1.1417 -1.2992 0.2997 0.8731 -1.0044 -0.6836 -1.1403 -0.0004 0.0004zm8.4213 2.2755l1.3291 0.0697 0.4778 -1.2426 0.3444 1.2856 1.3291 0.0698 -1.1149 0.7253 0.3444 1.2856 -1.0351 -0.838 -1.118 0.7252 0.477 -1.2426 -1.0329 -0.838 -0.0009 0zm8.4359 -0.9118l1.2338 -0.498 -0.0926 -1.3277 0.8556 1.0197 1.2339 -0.4985 -0.7038 1.1286 0.8556 1.0197 -1.2931 -0.3225 -0.7069 1.1298 -0.093 -1.3273 -1.2904 -0.3233 0.0009 -0.0005z"/>
    <g style="clip-path:url(#id0)">
     <polygon id="_111407376" class="fil2" points="145.772,14.5848 184.229,14.5848 184.229,53.0415 145.772,53.0415 "/>
    </g>
    <g style="clip-path:url(#id1)">
     <g>
      <path id="_2442497281" class="fil3" d="M189.756 49.7933l-6.747 -39.0038 -17.1626 3.6119 4.9082 9.2511 0.7902 2.3632 0.8139 3.5839 0.4612 4.0108 -1.2391 8.4372 -1.928 4.4259 -2.7537 5.2556 -2.3409 4.5646c0,0 4.9573,1.6598 6.747,1.383 1.7902,-0.2764 15.9726,-4.1495 18.4513,-7.8839l-0.0005 0.0005z"/>
      <path id="_244249656" class="fil4" d="M140.461 49.7933l6.747 -39.0038 16.7989 3.3193 -4.544 9.5433 -1.2391 2.2131 -0.964 3.7344 0.1378 4.0108 -0.2053 3.6664 1.4444 4.7704 1.9275 4.4259 2.7542 5.2556 2.3409 4.5645c0,0 -4.9573,1.6599 -6.747,1.383 -1.7902,-0.2764 -15.9727,-4.1494 -18.4513,-7.8838l0 0.0009z"/>
      <path id="_244249584" class="fil1" d="M164.64 54.4122c-3.3627,-4.2798 -5.6544,-8.592 -6.8747,-12.9363 -2.8489,0.6577 -5.6821,1.7147 -8.4999,3.171l-0.4181 -0.8271c2.877,-1.487 5.7707,-2.5681 8.6807,-3.2443 -0.5371,-2.1772 -0.8061,-4.3631 -0.8061,-6.5566 0,-3.1477 0.5538,-6.3077 1.6599,-9.4805 -3.1982,-0.6551 -6.3762,-1.7981 -9.5345,-3.4303l0.4181 -0.8267c3.1267,1.6156 6.2732,2.7402 9.4389,3.3729 1.319,-3.4628 3.2956,-6.9405 5.9305,-10.4332l0.3659 0.2822 0.3659 -0.2822c2.6221,3.4751 4.5927,6.9361 5.9112,10.3818 3.1359,-0.6415 6.2911,-1.7502 9.4656,-3.3254l0.4037 0.8341c-3.2,1.5875 -6.382,2.7125 -9.546,3.3746 1.1185,3.1903 1.6784,6.3679 1.6784,9.5327 0,2.2128 -0.2738,4.4167 -0.8201,6.6128 2.881,0.6783 5.7769,1.7397 8.6872,3.1842l-0.4036 0.8341c-2.8569,-1.4177 -5.6975,-2.4572 -8.5227,-3.1188 -1.2247,4.3254 -3.5107,8.6192 -6.8594,12.8806l-0.3606 -0.2896 -0.3607 0.2896 0.0004 0.0004zm-6.9949 -20.3928c0,2.1258 0.2624,4.2455 0.7859,6.36 2.1271,-0.4322 4.2631,-0.649 6.4078,-0.649 2.2303,0 4.4702,0.2344 6.7189,0.7016 0.5327,-2.1315 0.7995,-4.2692 0.7995,-6.4126 0,-3.1008 -0.5573,-6.2187 -1.6713,-9.3538 -1.9556,0.3546 -3.9047,0.5318 -5.8467,0.5318 -1.8529,0 -3.6993,-0.1614 -5.5395,-0.4839 -1.1026,3.1188 -1.6541,6.2204 -1.6541,9.3059l-0.0005 0zm1.025 7.2612c1.1469,4.0508 3.2574,8.08 6.3306,12.0873 3.06,-3.9902 5.1652,-8.0019 6.3157,-12.0351 -2.1689,-0.4466 -4.3281,-0.67 -6.4776,-0.67 -2.0644,0 -4.1205,0.2058 -6.1683,0.6174l-0.0004 0.0004zm6.3306 -27.0033c-2.3575,3.1999 -4.1482,6.3823 -5.3723,9.5476 1.7309,0.2936 3.468,0.4401 5.2104,0.4401 1.8323,0 3.6712,-0.1623 5.5167,-0.4866 -1.2238,-3.1499 -3.0087,-6.317 -5.3548,-9.5011z"/>
     </g>
    </g>
    <path class="fil5" d="M165 14.5848c10.6174,0 19.2283,8.6105 19.2283,19.2284 0,10.6178 -8.6109,19.2283 -19.2283,19.2283 -10.6179,0 -19.2283,-8.6105 -19.2283,-19.2283 0,-10.6179 8.6104,-19.2284 19.2283,-19.2284z"/>
    <path id="_111411864" class="fil5" d="M165 14.5848c10.6174,0 19.2283,8.6105 19.2283,19.2284 0,10.6178 -8.6109,19.2283 -19.2283,19.2283 -10.6179,0 -19.2283,-8.6105 -19.2283,-19.2283 0,-10.6179 8.6104,-19.2284 19.2283,-19.2284z"/>
    <path id="_243330264" class="fil1" d="M165 14.1162c5.4381,0 10.3625,2.2053 13.9271,5.7699 3.5646,3.5646 5.7698,8.4889 5.7698,13.9271 0,5.4381 -2.2052,10.3625 -5.7698,13.927 -3.5646,3.5646 -8.489,5.7699 -13.9271,5.7699 -5.4382,0 -10.3625,-2.2053 -13.9271,-5.7699 -3.5646,-3.5645 -5.7698,-8.4889 -5.7698,-13.927 0,-5.4382 2.2052,-10.3625 5.7698,-13.9271 3.5646,-3.5646 8.4889,-5.7699 13.9271,-5.7699zm13.2645 6.4324c-3.3948,-3.3948 -8.0848,-5.4952 -13.2645,-5.4952 -5.1797,0 -9.8698,2.1004 -13.2645,5.4952 -3.3948,3.3953 -5.4952,8.0853 -5.4952,13.2646 0,5.1792 2.1004,9.8697 5.4952,13.2645 3.3947,3.3952 8.0848,5.4952 13.2645,5.4952 5.1793,0 9.8693,-2.1004 13.2645,-5.4952 3.3948,-3.3948 5.4952,-8.0848 5.4952,-13.2645 0,-5.1797 -2.1004,-9.8698 -5.4952,-13.2646z"/>
    <path id="_243330144" class="fil1" d="M159.42 39.0727l1.269 -12.8516 3.328 0 0.6722 4.9037c0.1001,0.745 0.1848,1.4602 0.2545,2.1425 0.0667,0.685 0.1211,1.3493 0.1637,1.9956 0.1057,-1.1329 0.197,-2.0285 0.2694,-2.6805 0.0755,-0.6551 0.1365,-1.1417 0.1817,-1.4576l0.8358 -4.9037 3.2917 0 1.0903 12.8516 -2.6164 0 -0.2755 -5.9677c-0.0062,-0.1413 -0.0154,-0.3515 -0.0272,-0.634 -0.0759,-1.5625 -0.115,-2.8398 -0.115,-3.8375l-1.6866 10.4388 -1.8714 0 -1.587 -10.5108c0,0.8745 -0.0544,2.1245 -0.1606,3.7502 -0.0241,0.3694 -0.0426,0.6459 -0.0514,0.8293l-0.3997 5.9317 -2.565 0 -0.0005 0z"/>
    <path id="_117015688" class="fil6" d="M148.717 40.0104l0 -3.2842c0.3989,0.3475 0.7938,0.6068 1.1777,0.7801 0.3875,0.1738 0.7788,0.2589 1.1702,0.2589 0.5406,0 0.9614,-0.1404 1.2707,-0.4217 0.3093,-0.2808 0.466,-0.6656 0.466,-1.15 0,-0.5994 -0.4173,-1.2501 -1.2558,-1.949 -0.2347,-0.1962 -0.4098,-0.3475 -0.5256,-0.455 -0.9728,-0.8692 -1.6437,-1.6459 -2.0087,-2.3374 -0.3616,-0.688 -0.5441,-1.4681 -0.5441,-2.3448 0,-1.3646 0.3874,-2.4668 1.1627,-3.3101 0.7753,-0.8393 1.7889,-1.261 3.0412,-1.261 0.4436,0 0.8797,0.0627 1.3119,0.1882 0.4361,0.126 0.8907,0.3256 1.3716,0.5919l0 2.7924c-0.559,-0.2664 -0.9951,-0.4511 -1.3045,-0.5511 -0.3093,-0.1001 -0.5853,-0.1518 -0.8235,-0.1518 -0.4586,0 -0.835,0.1443 -1.1255,0.4291 -0.2905,0.2848 -0.4361,0.6581 -0.4361,1.1206 0,0.4032 0.1079,0.7801 0.3282,1.1316 0.2198,0.3515 0.7266,0.8692 1.5282,1.5533 1.0697,0.9135 1.759,1.6677 2.0649,2.2706 0.3058,0.6064 0.4585,1.3312 0.4585,2.1855 0,1.4388 -0.4098,2.5743 -1.2299,3.4097 -0.8161,0.8319 -1.9345,1.2501 -3.3469,1.2501 -0.5367,0 -1.0364,-0.0627 -1.491,-0.1847 -0.4546,-0.122 -0.8723,-0.3107 -1.2597,-0.5621l-0.0005 0.0009z"/>
    <polygon id="_117015976" class="fil6" points="174.232,40.3544 174.232,24.5366 180.937,24.5366 180.937,27.4619 177.311,27.4619 177.311,30.6571 180.597,30.6571 180.597,33.5604 177.311,33.5604 177.311,37.2659 180.937,37.2659 180.937,40.3544 "/>
   </g>
   <path id="_243321576" class="fil1" d="M43.4649 69.9409l-2.15 2.3538c-1.1287,-0.6663 -1.9454,-0.9996 -2.4411,-0.9996 -0.3834,0 -0.7122,0.1459 -0.9873,0.4334 -0.2751,0.2874 -0.4165,0.6334 -0.4165,1.0331 0,0.7872 0.7166,1.4707 2.1496,2.05 1.0496,0.4457 1.8413,0.85 2.3788,1.2124 0.5375,0.362 0.9877,0.8663 1.3497,1.508 0.3624,0.6457 0.5416,1.3374 0.5416,2.0873 0,1.3747 -0.5543,2.5702 -1.6666,3.5911 -1.1083,1.0164 -2.4203,1.5248 -3.9327,1.5248 -1.6622,0 -3.2993,-0.7835 -4.9204,-2.3456l2.2706 -2.6498c1.0163,1.0496 1.9708,1.5748 2.8539,1.5748 0.4166,0 0.8168,-0.1829 1.2001,-0.5539 0.3788,-0.3706 0.5707,-0.7585 0.5707,-1.1669 0,-0.8372 -0.8831,-1.5748 -2.6457,-2.2078 -1.0123,-0.3669 -1.7289,-0.7081 -2.1496,-1.0332 -0.4252,-0.3206 -0.779,-0.7872 -1.0664,-1.3997 -0.2919,-0.6167 -0.4334,-1.2456 -0.4334,-1.8872 0,-1.4248 0.4625,-2.5789 1.3916,-3.4666 0.9245,-0.8872 2.1369,-1.3288 3.637,-1.3288 1.7708,0 3.262,0.5539 4.4661,1.6704zm4.0492 -1.4543l4.0995 0 3.0037 9.6075 3.0036 -9.6075 3.9659 0 2.05 16.0272 -3.2956 0 -1.4038 -11.2778 -3.5247 11.2778 -1.5748 0 -3.6162 -11.3737 -1.3292 11.3737 -3.3452 0 1.9664 -16.0272 0.0004 0zm18.6774 0l9.0199 0 0 3.1746 -5.5661 0 0 3.2333 5.5661 0 0 3.1245 -5.5661 0 0 3.3202 5.5661 0 0 3.1746 -9.0199 0 0 -16.0272zm30.5751 0.854l0 3.9204c-1.7335,-1.0496 -3.2537,-1.5748 -4.5538,-1.5748 -1.3038,0 -2.3456,0.4457 -3.1246,1.3415 -0.7831,0.8959 -1.1706,2.0996 -1.1706,3.6121 0,1.4334 0.4084,2.5789 1.2333,3.437 0.8204,0.8581 1.9168,1.2874 3.2956,1.2874 1.2037,0 2.6412,-0.483 4.3201,-1.4538l0 3.8826c-1.879,0.6294 -3.4452,0.9418 -4.6998,0.9418 -2.1578,0 -3.9868,-0.7917 -5.4948,-2.3747 -1.5042,-1.5834 -2.2582,-3.512 -2.2582,-5.7908 0,-2.3206 0.7667,-4.2828 2.3042,-5.8913 1.5329,-1.608 3.3997,-2.4079 5.5948,-2.4079 1.4165,0 2.9331,0.3584 4.5538,1.0705zm2.5744 -0.854l3.4538 0 0 6.1787 5.674 0 0 -6.1787 3.4415 0 0 16.0272 -3.4415 0 0 -6.3701 -5.674 0 0 6.3701 -3.4538 0 0 -16.0272zm21.4478 0l2.6707 0 6.5452 16.0272 -3.4661 0 -1.3083 -3.1496 -6.141 0 -1.2538 3.1496 -3.4534 0 6.4075 -16.0272 -0.0008 0zm1.3415 5.2496l-1.8663 4.7244 3.7953 0 -1.929 -4.7244zm11.4483 -5.2496l4.1 0 3.0036 9.6075 3.0037 -9.6075 3.9659 0 2.05 16.0272 -3.2956 0 -1.4038 -11.2778 -3.5248 11.2778 -1.5748 0 -3.6162 -11.3737 -1.3292 11.3737 -3.3451 0 1.9663 -16.0272zm18.602 0l4.6748 0c1.9536,0 3.2869,0.4084 4.0036,1.2206 0.7167,0.8167 1.075,1.7666 1.075,2.8585 0,0.6916 -0.1291,1.2747 -0.3915,1.7494 -0.2583,0.4752 -0.679,0.9582 -1.2583,1.4457 1.1082,0.3833 1.8913,0.9458 2.3497,1.6916 0.4625,0.7458 0.6916,1.5416 0.6916,2.3874 0,1.4707 -0.5043,2.6207 -1.5165,3.4412 -1.0082,0.8204 -2.4289,1.2332 -4.2579,1.2332l-5.3705 0 0 -16.0272 0 -0.0004zm3.4542 2.6998l0 3.5039 0.7917 0c0.5875,0 1.0787,-0.1874 1.4789,-0.558 0.4001,-0.3707 0.5998,-0.8249 0.5998,-1.3711 0,-0.4415 -0.196,-0.8122 -0.5875,-1.1164 -0.3916,-0.3083 -0.8791,-0.458 -1.4662,-0.458l-0.8167 0 0 -0.0004zm0 6.2242l0 4.4075 1.2456 0c1.904,0 2.8536,-0.6917 2.8536,-2.0791 0,-0.7458 -0.2292,-1.3206 -0.6958,-1.7249 -0.4625,-0.4042 -1.125,-0.6039 -1.9873,-0.6039l-1.4161 0 0 0.0004zm9.8654 -8.924l9.0199 0 0 3.1746 -5.5661 0 0 3.2333 5.5661 0 0 3.1245 -5.5661 0 0 3.3202 5.5661 0 0 3.1746 -9.0199 0 0 -16.0272zm11.9231 0l5.2705 0c1.6039,0 2.8704,0.4252 3.8036,1.2706 0.9331,0.8458 1.3956,1.9913 1.3956,3.4288 0,0.8249 -0.2124,1.6789 -0.6372,2.5625 -0.4292,0.8872 -1.2168,1.583 -2.3624,2.0869l4.4789 6.6784 -3.9541 0 -4.1495 -6.1991 -0.3916 0 0 6.1991 -3.4538 0 0 -16.0272zm3.4792 2.8581l0 4.1746 0.7417 0c1.7995,0 2.6994,-0.7376 2.6994,-2.2083 0,-0.6039 -0.2337,-1.0832 -0.7039,-1.4374 -0.4666,-0.3542 -1.1165,-0.5289 -1.9459,-0.5289l-0.7913 0zm17.2478 5.1492c0,-2.3661 0.7835,-4.3206 2.3497,-5.8663 1.5662,-1.5412 3.4202,-2.312 5.5698,-2.312 2.3747,0 4.341,0.7749 5.8953,2.3243 1.5539,1.5502 2.3329,3.5125 2.3329,5.8786 0,2.3538 -0.7708,4.3033 -2.3083,5.8576 -1.537,1.5539 -3.4743,2.3333 -5.8117,2.3333 -2.3329,0 -4.2578,-0.7753 -5.7658,-2.3206 -1.5079,-1.5457 -2.2623,-3.512 -2.2623,-5.8954l0.0004 0.0005zm8.0782 -4.9786c-1.3415,-0.0251 -2.4248,0.4374 -3.2456,1.3915 -0.8204,0.95 -1.2332,2.1787 -1.2332,3.6871 0,1.4206 0.421,2.6039 1.2582,3.537 0.8377,0.9373 1.8959,1.4043 3.1705,1.4043 1.3457,0 2.4289,-0.4625 3.2538,-1.3829 0.8249,-0.925 1.2415,-2.146 1.2415,-3.658 0,-1.4871 -0.408,-2.6831 -1.2165,-3.5871 -0.8081,-0.904 -1.8872,-1.3665 -3.2287,-1.3915l0 -0.0004zm10.9735 -3.0287l9.0196 0 0 3.0996 -5.5908 0 0 3.2746 5.5908 0 0 3.1246 -5.5662 0 0 6.528 -3.4534 0 0 -16.0272 0 0.0004zm18.4306 0l3.4415 0 0 16.0272 -3.4415 0 0 -16.0272zm17.2609 0l3.3784 0 0 16.0272 -3.3452 0 -7.3574 -10.3737 0 10.3737 -3.4415 0 0 -16.0272 3.3915 0 7.3742 10.3028 0 -10.3028zm6.528 0l5.4702 0c2.3329,0 4.2119,0.7376 5.637,2.2124 1.4248,1.4706 2.1373,3.412 2.1373,5.8199 0,2.4165 -0.7335,4.3533 -2.2037,5.8117 -1.4707,1.4542 -3.4247,2.1832 -5.8662,2.1832l-5.1746 0 0 -16.0272zm3.4792 3.0287l0 9.8989 1.3665 0c1.4162,0 2.5789,-0.3874 3.4912,-1.1582 0.9122,-0.7749 1.3665,-2.0664 1.3665,-3.8704 0,-1.0496 -0.221,-1.9786 -0.6585,-2.7912 -0.4374,-0.8086 -1.075,-1.3584 -1.9126,-1.6458 -0.8331,-0.2874 -1.6285,-0.4333 -2.3829,-0.4333l-1.2706 0 0.0004 0zm12.2942 -3.0287l3.4415 0 0 16.0272 -3.4415 0 0 -16.0272zm12.2191 0l2.6708 0 6.5452 16.0272 -3.4662 0 -1.3083 -3.1496 -6.1409 0 -1.2542 3.1496 -3.4534 0 6.4074 -16.0272 -0.0004 0zm1.3415 5.2496l-1.8663 4.7244 3.7954 0 -1.9291 -4.7244z"/>
   <path id="_245423848" class="fil7" d="M33.5547 91.5084l4.9655 0 0 1.7474 -3.0639 0 0 1.7798 3.0639 0 0 1.7204 -3.0639 0 0 1.8277 3.0639 0 0 1.7474 -4.9655 0 0 -8.8231 0 0.0004zm8.3119 3.0438l0 0.9217c0.0799,-0.0549 0.1972,-0.1583 0.3555,-0.3095 0.1562,-0.1513 0.3075,-0.2797 0.4542,-0.3854 0.1448,-0.1054 0.3186,-0.1903 0.5228,-0.2571 0.2042,-0.0644 0.3874,-0.096 0.5551,-0.096 0.2636,0 0.5502,0.0915 0.8602,0.2772 0.3095,0.1857 0.5662,0.5162 0.7728,0.993 0.3576,-0.4588 0.7085,-0.7843 1.0505,-0.9795 0.3435,-0.1947 0.6625,-0.2911 0.9585,-0.2911 0.5228,0 0.968,0.2153 1.3305,0.6491 0.3624,0.4309 0.5432,0.963 0.5432,1.5936l0 3.6629 -1.7199 0 0 -3.2041c0,-0.3186 -0.0874,-0.5871 -0.2616,-0.8052 -0.1747,-0.2153 -0.3854,-0.3256 -0.633,-0.3256 -0.2956,0 -0.5503,0.1243 -0.7659,0.3694 -0.2132,0.2477 -0.321,0.5417 -0.321,0.8807l0 3.0848 -1.7065 0 0 -3.1237c0,-0.337 -0.0893,-0.6195 -0.266,-0.8508 -0.1767,-0.2316 -0.3899,-0.3464 -0.6421,-0.3464 -0.2956,0 -0.5506,0.1258 -0.7659,0.3805 -0.2156,0.2525 -0.321,0.5551 -0.321,0.9106l0 3.0298 -1.7339 0 0 -5.7793 1.7339 0 -0.0004 0.0004zm10.8436 0.0136l0 0.8421 0.0275 0c0.2501,-0.337 0.5112,-0.583 0.7818,-0.7364 0.2706,-0.1562 0.5966,-0.2316 0.9771,-0.2316 0.6904,0 1.28,0.3005 1.7638,0.9061 0.4862,0.6055 0.7293,1.3394 0.7293,2.2041 0,0.7934 -0.2361,1.4723 -0.7084,2.0385 -0.4723,0.5667 -1.032,0.8508 -1.6835,0.8508 -0.3989,0 -0.7318,-0.0824 -1,-0.2501 -0.2685,-0.1652 -0.5461,-0.4289 -0.8323,-0.7913l-0.0274 0 0 3.4792 -1.7474 0 0 -8.3119 1.7203 0 -0.0008 0.0005zm2.4792 2.97c0,-0.376 -0.1217,-0.6995 -0.3624,-0.9701 -0.2431,-0.2706 -0.5322,-0.4059 -0.8671,-0.4059 -0.3325,0 -0.6146,0.1333 -0.8463,0.3994 -0.2337,0.2661 -0.3485,0.5916 -0.3485,0.977 0,0.3714 0.1218,0.6904 0.3645,0.9541 0.2452,0.2636 0.5412,0.3968 0.8897,0.3968 0.342,0 0.6216,-0.1262 0.8422,-0.3759 0.2177,-0.2497 0.3279,-0.5757 0.3279,-0.9746l0 -0.0008zm2.9098 -0.0804c0,-0.8921 0.2845,-1.6191 0.8532,-2.1832 0.5687,-0.5646 1.3005,-0.8463 2.1902,-0.8463 0.8307,0 1.5252,0.2866 2.0869,0.8623 0.5621,0.576 0.8442,1.289 0.8442,2.1402 0,0.8692 -0.2817,1.5916 -0.8442,2.1647 -0.5617,0.5736 -1.2657,0.8602 -2.1119,0.8602 -0.9545,0 -1.6974,-0.305 -2.2246,-0.9106 -0.5298,-0.608 -0.7934,-1.3025 -0.7934,-2.0873l-0.0004 0zm4.2795 0c0,-0.3899 -0.1262,-0.7294 -0.3829,-1.0205 -0.2546,-0.2915 -0.5527,-0.4383 -0.8921,-0.4383 -0.3555,0 -0.6585,0.1378 -0.9152,0.4109 -0.2546,0.273 -0.3829,0.601 -0.3829,0.9815 0,0.4153 0.1263,0.7704 0.3809,1.0619 0.2521,0.2911 0.5572,0.4358 0.9176,0.4358 0.3394,0 0.6375,-0.1422 0.8921,-0.4264 0.2567,-0.2845 0.383,-0.6195 0.383,-1.0045l-0.0005 -0.0004zm2.2456 -2.9032l1.8142 0 1.5527 3.4288 1.3784 -3.4288 1.1148 0 1.3645 3.401 1.5387 -3.401 1.8142 0 -2.6281 5.7794 -1.3899 0 -1.25 -3.1648 -1.2772 3.1648 -1.4038 0 -2.6281 -5.7794 -0.0004 0zm16.9394 3.3001l-4.1192 0c0.023,0.3715 0.1447,0.6744 0.3669,0.9057 0.2223,0.2341 0.4793,0.3509 0.7754,0.3509 0.5297,0 0.9425,-0.241 1.2431,-0.7203l1.5797 0.5252c-0.5871,1.025 -1.4998,1.5387 -2.7359,1.5387 -0.9082,0 -1.6306,-0.2755 -2.1693,-0.8278 -0.5367,-0.5506 -0.8053,-1.2911 -0.8053,-2.2226 0,-0.8392 0.2821,-1.5412 0.8487,-2.1098 0.5667,-0.5687 1.2641,-0.8532 2.0939,-0.8532 0.8323,0 1.5272,0.2984 2.0848,0.897 0.5597,0.5982 0.8372,1.344 0.8372,2.2407l0 0.2755zm-4.1053 -1.1558l2.3255 0c-0.1603,-0.7204 -0.5321,-1.0828 -1.1098,-1.0828 -0.3305,0 -0.6052,0.0943 -0.8208,0.2821 -0.2181,0.1882 -0.3485,0.4563 -0.3944,0.8007l-0.0005 0zm6.9536 -2.1443l0 0.8557 0.0275 0c0.1697,-0.287 0.369,-0.5162 0.594,-0.6835 0.2268,-0.1673 0.4359,-0.2521 0.6282,-0.2521 0.1168,0 0.2226,0.0094 0.3165,0.0274l0 1.8811c-0.1443,-0.0254 -0.2841,-0.0393 -0.424,-0.0393 -0.3534,0 -0.6285,0.1238 -0.8212,0.3714 -0.1947,0.2501 -0.2935,0.5986 -0.2935,1.0459l0 2.5736 -1.7474 0 0 -5.7794 1.7199 0 0 -0.0008zm2.5276 -2.1356c0,-0.2911 0.1054,-0.5433 0.3165,-0.752 0.2087,-0.2111 0.4633,-0.3165 0.7589,-0.3165 0.2961,0 0.5482,0.1054 0.7594,0.3165 0.2107,0.2087 0.314,0.4609 0.314,0.752 0,0.296 -0.1033,0.5481 -0.314,0.7593 -0.2112,0.2107 -0.4633,0.3165 -0.7594,0.3165 -0.2956,0 -0.5502,-0.1058 -0.7589,-0.3165 -0.2111,-0.2112 -0.3165,-0.4633 -0.3165,-0.7593zm0.2222 2.1356l1.7204 0 0 5.7794 -1.7204 0 0 -5.7794zm5.3485 0l0 0.6855c0.5871,-0.5502 1.2041,-0.8257 1.8486,-0.8257 0.5502,0 1.0066,0.2267 1.367,0.6786 0.3599,0.4518 0.5412,1.0299 0.5412,1.7338l0 3.5067 -1.7474 0 0 -3.2311c0,-0.3326 -0.0894,-0.6126 -0.2731,-0.8397 -0.1812,-0.2292 -0.401,-0.3436 -0.6605,-0.3436 -0.3145,0 -0.5711,0.1443 -0.7733,0.4334 -0.2013,0.289 -0.3025,0.6629 -0.3025,1.1193l0 2.8622 -1.7204 0 0 -5.7794 1.7204 0zm9.2999 5.4489l0 -0.6765c-0.5141,0.6535 -1.1098,0.9795 -1.7863,0.9795 -0.7249,0 -1.3325,-0.2796 -1.8188,-0.8393 -0.4842,-0.5596 -0.7269,-1.2611 -0.7269,-2.1029 0,-0.8142 0.2501,-1.5092 0.7544,-2.0803 0.5047,-0.5711 1.1098,-0.8552 1.8187,-0.8552 0.5982,0 1.1857,0.314 1.7593,0.9401l0 -0.8003 1.706 0 0 5.8461c0,0.3235 -0.1008,0.6925 -0.305,1.1123 -0.2042,0.4195 -0.5506,0.727 -1.0414,0.9266 -0.4908,0.1993 -1.0574,0.3006 -1.7035,0.3006 -0.8008,0 -1.4428,-0.1513 -1.9242,-0.4519 -0.4817,-0.2984 -0.8282,-0.8142 -1.0389,-1.5436l1.9286 0c0.376,0.5232 0.7844,0.7843 1.2218,0.7843 0.342,0 0.6195,-0.1418 0.8348,-0.4264 0.2132,-0.2845 0.3214,-0.6535 0.3214,-1.1123l0 -0.0008zm-2.4997 -2.5912c0,0.2936 0.1308,0.5826 0.3874,0.8622 0.2571,0.2797 0.5572,0.4195 0.9036,0.4195 0.3346,0 0.6232,-0.1329 0.8623,-0.399 0.2406,-0.2661 0.3599,-0.5916 0.3599,-0.977 0,-0.3944 -0.1143,-0.7204 -0.3415,-0.9746 -0.2296,-0.2566 -0.5231,-0.3829 -0.8807,-0.3829 -0.362,0 -0.6699,0.1328 -0.9175,0.3989 -0.2477,0.2661 -0.3739,0.6167 -0.3739,1.0529l0.0004 0zm14.6225 -5.1012l-1.1832 1.296c-0.6216,-0.3669 -1.0714,-0.5502 -1.344,-0.5502 -0.2112,0 -0.3924,0.08 -0.5437,0.2382 -0.1513,0.1587 -0.2292,0.3489 -0.2292,0.5687 0,0.4338 0.3945,0.8097 1.1833,1.1283 0.5781,0.2452 1.0135,0.4678 1.3095,0.6675 0.2956,0.1996 0.5433,0.4768 0.7429,0.8302 0.1997,0.3551 0.2985,0.7364 0.2985,1.1488 0,0.7569 -0.305,1.4153 -0.9171,1.977 -0.6101,0.5597 -1.3325,0.8393 -2.1652,0.8393 -0.9151,0 -1.8163,-0.4309 -2.7085,-1.2911l1.2497 -1.4588c0.5596,0.5781 1.0848,0.8672 1.5711,0.8672 0.2296,0 0.4494,-0.1009 0.6605,-0.305 0.2087,-0.2042 0.3141,-0.4174 0.3141,-0.6421 0,-0.4608 -0.4859,-0.8671 -1.4563,-1.2156 -0.5576,-0.2018 -0.9521,-0.39 -1.1837,-0.5687 -0.2341,-0.1767 -0.4289,-0.4334 -0.5871,-0.7708 -0.1607,-0.3395 -0.2386,-0.6859 -0.2386,-1.0389 0,-0.7844 0.2546,-1.4199 0.7658,-1.9082 0.5093,-0.4887 1.1767,-0.7318 2.0021,-0.7318 0.9745,0 1.7957,0.305 2.4583,0.9196l0.0008 0.0004zm2.23 -0.8003l2.2566 0 1.6535 5.289 1.6535 -5.289 2.1837 0 1.1283 8.8232 -1.8142 0 -0.7729 -6.2086 -1.9401 6.2086 -0.8671 0 -1.9906 -6.2611 -0.7318 6.2611 -1.8417 0 1.0828 -8.8232zm10.2815 0l4.9655 0 0 1.7474 -3.0644 0 0 1.7798 3.0644 0 0 1.7204 -3.0644 0 0 1.8277 3.0644 0 0 1.7474 -4.9655 0 0 -8.8231 0 0.0004zm10.7493 3.8577l-1.1697 0.7109c-0.335,-0.3395 -0.6491,-0.5092 -0.9402,-0.5092 -0.1422,0 -0.266,0.0389 -0.3694,0.1214 -0.1029,0.0803 -0.1533,0.1787 -0.1533,0.2935 0,0.1902 0.0574,0.3255 0.1763,0.4104 0.1193,0.0849 0.4358,0.2157 0.9516,0.3944 0.5141,0.1767 0.9221,0.4039 1.2181,0.6814 0.2981,0.2776 0.4473,0.663 0.4473,1.1558 0,0.4978 -0.2226,0.9242 -0.672,1.28 -0.4473,0.3555 -0.984,0.5343 -1.6121,0.5343 -0.4243,0 -0.8487,-0.1193 -1.273,-0.3555 -0.4244,-0.2386 -0.7823,-0.6011 -1.0779,-1.0894l1.3899 -0.6309c0.314,0.5412 0.64,0.8122 0.9745,0.8122 0.1513,0 0.2887,-0.0484 0.4105,-0.1468 0.1217,-0.0988 0.1816,-0.2112 0.1816,-0.337 0,-0.1603 -0.0689,-0.2821 -0.2087,-0.367 -0.1378,-0.0828 -0.2411,-0.1238 -0.3096,-0.1238 -0.0254,-0.0299 -0.1886,-0.0943 -0.4842,-0.1882 -1.1557,-0.3764 -1.7314,-0.986 -1.7314,-1.8347 0,-0.5092 0.2062,-0.9266 0.6191,-1.2522 0.4153,-0.3255 0.9561,-0.4862 1.6236,-0.4862 0.7384,0 1.4083,0.3075 2.009,0.9266zm8.4877 -3.7888l0 1.6515c-0.2591,-0.1743 -0.4837,-0.2616 -0.6715,-0.2616 -0.2411,0 -0.4383,0.0873 -0.5871,0.2616 -0.1513,0.1742 -0.2247,0.4013 -0.2247,0.6789l0 0.6445 1.4702 0 0 1.5666 -1.4842 0 0 4.2132 -1.7195 0 0 -4.2132 -0.5113 0 0 -1.5666 0.5113 0 0 -0.7043c0,-0.9816 0.2067,-1.6441 0.6236,-1.993 0.4174,-0.3465 0.9057,-0.5207 1.4653,-0.5207 0.4424,0 0.8188,0.0803 1.1279,0.2431zm0.8123 5.8781c0,-0.8921 0.2845,-1.6191 0.8532,-2.1832 0.5686,-0.5646 1.3001,-0.8463 2.1902,-0.8463 0.8306,0 1.5252,0.2866 2.0868,0.8623 0.5622,0.576 0.8442,1.289 0.8442,2.1402 0,0.8692 -0.282,1.5916 -0.8442,2.1647 -0.5616,0.5736 -1.2656,0.8602 -2.1123,0.8602 -0.954,0 -1.6969,-0.305 -2.2246,-0.9106 -0.5297,-0.608 -0.7938,-1.3025 -0.7938,-2.0873l0.0005 0zm4.2791 0c0,-0.3899 -0.1259,-0.7294 -0.3829,-1.0205 -0.2547,-0.2915 -0.5527,-0.4383 -0.8922,-0.4383 -0.3555,0 -0.658,0.1378 -0.9151,0.4109 -0.2546,0.273 -0.3829,0.601 -0.3829,0.9815 0,0.4153 0.1262,0.7704 0.3804,1.0619 0.2522,0.2911 0.5572,0.4358 0.9176,0.4358 0.3395,0 0.6375,-0.1422 0.8922,-0.4264 0.257,-0.2845 0.3829,-0.6195 0.3829,-1.0045l0 -0.0004zm4.8187 -2.9032l0 0.8557 0.0279 0c0.1697,-0.287 0.369,-0.5162 0.5941,-0.6835 0.2267,-0.1673 0.4358,-0.2521 0.6281,-0.2521 0.1168,0 0.2226,0.0094 0.3165,0.0274l0 1.8811c-0.1443,-0.0254 -0.2841,-0.0393 -0.4244,-0.0393 -0.3534,0 -0.6281,0.1238 -0.8212,0.3714 -0.1947,0.2501 -0.2935,0.5986 -0.2935,1.0459l0 2.5736 -1.7474 0 0 -5.7794 1.7199 0 0 -0.0008zm13.91 -1.1287l-1.2636 1.1837c-0.2637,-0.4564 -0.5896,-0.7983 -0.9795,-1.0254 -0.3899,-0.2268 -0.7983,-0.3391 -1.2251,-0.3391 -0.688,0 -1.289,0.2616 -1.7958,0.7868 -0.5092,0.5227 -0.7638,1.1418 -0.7638,1.8552 0,0.7569 0.2546,1.3969 0.7638,1.9245 0.5068,0.5253 1.1218,0.7889 1.8372,0.7889 0.3899,0 0.7659,-0.0988 1.1263,-0.296 0.3599,-0.1972 0.649,-0.5662 0.8692,-1.1078l-2.0894 0 0 -1.7204 4.0709 0 0 1.1423c0,0.5871 -0.1997,1.2176 -0.6031,1.8921 -0.4039,0.6744 -0.9336,1.1648 -1.5937,1.4768 -0.658,0.3124 -1.3235,0.4678 -1.9954,0.4678 -1.2177,0 -2.2452,-0.4428 -3.0824,-1.3235 -0.8393,-0.8827 -1.2566,-1.9745 -1.2566,-3.2726 0,-1.232 0.4309,-2.2845 1.2935,-3.1582 0.8622,-0.8741 1.8991,-1.3095 3.1143,-1.3095 1.5478,0 2.7409,0.6765 3.5732,2.0344zm1.97 -2.0615l1.7203 0 0 8.9696 -1.7203 0 0 -8.9696zm3.3394 6.0934c0,-0.8921 0.2846,-1.6191 0.8532,-2.1832 0.5687,-0.5646 1.3005,-0.8463 2.1902,-0.8463 0.8307,0 1.5252,0.2866 2.0869,0.8623 0.5621,0.576 0.8442,1.289 0.8442,2.1402 0,0.8692 -0.2821,1.5916 -0.8442,2.1647 -0.5617,0.5736 -1.2656,0.8602 -2.1123,0.8602 -0.9545,0 -1.697,-0.305 -2.2246,-0.9106 -0.5297,-0.608 -0.7938,-1.3025 -0.7938,-2.0873l0.0004 0zm4.2796 0c0,-0.3899 -0.1259,-0.7294 -0.383,-1.0205 -0.2546,-0.2915 -0.5526,-0.4383 -0.8921,-0.4383 -0.3555,0 -0.6585,0.1378 -0.9151,0.4109 -0.2546,0.273 -0.383,0.601 -0.383,0.9815 0,0.4153 0.1263,0.7704 0.3805,1.0619 0.2522,0.2911 0.5572,0.4358 0.9176,0.4358 0.3395,0 0.6375,-0.1422 0.8921,-0.4264 0.2571,-0.2845 0.383,-0.6195 0.383,-1.0045l0 -0.0004zm3.1811 -6.1073l1.72 0 0 3.9909c0.5092,-0.5986 1.0918,-0.8991 1.7453,-0.8991 0.6905,0 1.2866,0.2985 1.7909,0.8921 0.5043,0.5966 0.7569,1.3145 0.7569,2.1513 0,0.7938 -0.2501,1.4838 -0.7475,2.0734 -0.4957,0.5871 -1.0733,0.8827 -1.7314,0.8827 -0.3325,0 -0.6375,-0.0824 -0.9176,-0.2501 -0.2796,-0.1652 -0.5846,-0.4289 -0.9106,-0.7913l0 0.9336 -1.706 0 0 -8.9835zm2.9561 4.8117c-0.3419,0 -0.626,0.1214 -0.8556,0.3645 -0.2268,0.2456 -0.3416,0.5736 -0.3416,0.9861 0,0.3923 0.1193,0.7179 0.36,0.977 0.2382,0.2566 0.5412,0.3854 0.9036,0.3854 0.3305,0 0.6081,-0.1263 0.8258,-0.3784 0.2197,-0.2547 0.3296,-0.5732 0.3296,-0.9586 0,-0.376 -0.1193,-0.6995 -0.3596,-0.9701 -0.2386,-0.2706 -0.5276,-0.4059 -0.8622,-0.4059zm8.1832 4.1718l0 -0.9886 -0.0255 0c-0.2706,0.3854 -0.5412,0.6651 -0.8138,0.8373 -0.2731,0.1722 -0.6101,0.2591 -1.0139,0.2591 -0.6765,0 -1.2522,-0.2911 -1.7269,-0.8737 -0.4748,-0.5826 -0.7134,-1.2886 -0.7134,-2.1238 0,-0.8233 0.2546,-1.5297 0.7589,-2.1189 0.5067,-0.5896 1.1078,-0.8831 1.8003,-0.8831 0.3325,0 0.631,0.0734 0.8946,0.2202 0.2636,0.1492 0.5432,0.3829 0.8392,0.7064l0 -0.8003 1.72 0 0 5.7658 -1.72 0 0.0005 -0.0004zm-1.2616 -4.1718c-0.3419,0 -0.6261,0.1353 -0.8557,0.4059 -0.2267,0.2706 -0.3419,0.6122 -0.3419,1.025 0,0.3854 0.1078,0.695 0.3255,0.9291 0.2181,0.2361 0.5027,0.353 0.8577,0.353 0.3395,0 0.631,-0.1353 0.8742,-0.4059 0.2406,-0.2706 0.362,-0.5986 0.362,-0.984 0,-0.3579 -0.1214,-0.6699 -0.362,-0.9311 -0.2432,-0.2616 -0.5298,-0.3924 -0.8602,-0.3924l0.0004 0.0004zm4.7703 -4.7978l1.7204 0 0 8.9696 -1.7204 0 0 -8.9696zm13.8296 0.6167l0 2.1582c-0.954,-0.5781 -1.7908,-0.8671 -2.5067,-0.8671 -0.7179,0 -1.2915,0.2455 -1.7204,0.7384 -0.4309,0.4928 -0.6445,1.1557 -0.6445,1.988 0,0.7893 0.2247,1.4199 0.679,1.8922 0.4518,0.4723 1.0545,0.7089 1.8138,0.7089 0.663,0 1.4539,-0.2661 2.3784,-0.8004l0 2.1374c-1.0344,0.3464 -1.8966,0.5182 -2.5871,0.5182 -1.1881,0 -2.1947,-0.4358 -3.0253,-1.3075 -0.8278,-0.8712 -1.2432,-1.9331 -1.2432,-3.1877 0,-1.2776 0.4223,-2.3579 1.2686,-3.2431 0.8442,-0.8856 1.8712,-1.3255 3.0803,-1.3255 0.7798,0 1.6146,0.1972 2.5067,0.5896l0.0004 0.0004zm1.1952 5.4767c0,-0.8921 0.2845,-1.6191 0.8532,-2.1832 0.5686,-0.5646 1.3005,-0.8463 2.1902,-0.8463 0.8302,0 1.5252,0.2866 2.0869,0.8623 0.5621,0.576 0.8441,1.289 0.8441,2.1402 0,0.8692 -0.282,1.5916 -0.8441,2.1647 -0.5617,0.5736 -1.2657,0.8602 -2.1124,0.8602 -0.9544,0 -1.6969,-0.305 -2.2246,-0.9106 -0.5297,-0.608 -0.7937,-1.3025 -0.7937,-2.0873l0.0004 0zm4.2795 0c0,-0.3899 -0.1263,-0.7294 -0.3829,-1.0205 -0.2546,-0.2915 -0.5527,-0.4383 -0.8922,-0.4383 -0.3554,0 -0.6584,0.1378 -0.9151,0.4109 -0.2546,0.273 -0.3829,0.601 -0.3829,0.9815 0,0.4153 0.1262,0.7704 0.3804,1.0619 0.2522,0.2911 0.5572,0.4358 0.9176,0.4358 0.3395,0 0.6376,-0.1422 0.8922,-0.4264 0.2566,-0.2845 0.3829,-0.6195 0.3829,-1.0045l0 -0.0004zm4.9954 -2.9032l0 0.9217c0.08,-0.0549 0.1972,-0.1583 0.3555,-0.3095 0.1562,-0.1513 0.3075,-0.2797 0.4543,-0.3854 0.1447,-0.1054 0.3185,-0.1903 0.5227,-0.2571 0.2042,-0.0644 0.3875,-0.096 0.5551,-0.096 0.2637,0 0.5503,0.0915 0.8602,0.2772 0.3096,0.1857 0.5662,0.5162 0.7729,0.993 0.3575,-0.4588 0.7084,-0.7843 1.0504,-0.9795 0.3436,-0.1947 0.6625,-0.2911 0.9585,-0.2911 0.5228,0 0.968,0.2153 1.3305,0.6491 0.3624,0.4309 0.5432,0.963 0.5432,1.5936l0 3.6629 -1.7199 0 0 -3.2041c0,-0.3186 -0.0873,-0.5871 -0.2616,-0.8052 -0.1746,-0.2153 -0.3854,-0.3256 -0.633,-0.3256 -0.2956,0 -0.5502,0.1243 -0.7659,0.3694 -0.2132,0.2477 -0.321,0.5417 -0.321,0.8807l0 3.0848 -1.7064 0 0 -3.1237c0,-0.337 -0.0894,-0.6195 -0.2661,-0.8508 -0.1767,-0.2316 -0.3899,-0.3464 -0.6421,-0.3464 -0.2956,0 -0.5506,0.1258 -0.7658,0.3805 -0.2157,0.2525 -0.3211,0.5551 -0.3211,0.9106l0 3.0298 -1.7339 0 0 -5.7793 1.7339 0 -0.0004 0.0004zm10.8432 0.0136l0 0.8421 0.0275 0c0.2501,-0.337 0.5112,-0.583 0.7818,-0.7364 0.2706,-0.1562 0.5966,-0.2316 0.9771,-0.2316 0.6904,0 1.28,0.3005 1.7638,0.9061 0.4862,0.6055 0.7294,1.3394 0.7294,2.2041 0,0.7934 -0.2362,1.4723 -0.7085,2.0385 -0.4723,0.5667 -1.032,0.8508 -1.6835,0.8508 -0.3989,0 -0.7318,-0.0824 -0.9999,-0.2501 -0.2686,-0.1652 -0.5462,-0.4289 -0.8323,-0.7913l-0.0275 0 0 3.4792 -1.7474 0 0 -8.3119 1.7203 0 -0.0008 0.0005zm2.4793 2.97c0,-0.376 -0.1218,-0.6995 -0.3625,-0.9701 -0.2431,-0.2706 -0.5322,-0.4059 -0.8671,-0.4059 -0.3325,0 -0.6146,0.1333 -0.8463,0.3994 -0.2337,0.2661 -0.3485,0.5916 -0.3485,0.977 0,0.3714 0.1214,0.6904 0.3645,0.9541 0.2452,0.2636 0.5412,0.3968 0.8897,0.3968 0.342,0 0.6216,-0.1262 0.8422,-0.3759 0.2177,-0.2497 0.328,-0.5757 0.328,-0.9746l0 -0.0008zm8.4467 0.3165l-4.1192 0c0.0229,0.3715 0.1447,0.6744 0.3669,0.9057 0.2222,0.2341 0.4793,0.3509 0.7753,0.3509 0.5297,0 0.9426,-0.241 1.2431,-0.7203l1.5802 0.5252c-0.5871,1.025 -1.4998,1.5387 -2.7359,1.5387 -0.9082,0 -1.6306,-0.2755 -2.1693,-0.8278 -0.5367,-0.5506 -0.8053,-1.2911 -0.8053,-2.2226 0,-0.8392 0.2821,-1.5412 0.8487,-2.1098 0.5666,-0.5687 1.264,-0.8532 2.0939,-0.8532 0.8323,0 1.5272,0.2984 2.0848,0.897 0.5597,0.5982 0.8372,1.344 0.8372,2.2407l0 0.2755 -0.0004 0zm-4.1053 -1.1558l2.3255 0c-0.1603,-0.7204 -0.5322,-1.0828 -1.1098,-1.0828 -0.3305,0 -0.6052,0.0943 -0.8209,0.2821 -0.2181,0.1882 -0.3489,0.4563 -0.3944,0.8007l-0.0004 0zm5.3165 -4.1262l1.7199 0 0 1.9815 0.8253 0 0 1.5801 -0.8253 0 0 4.1997 -1.7199 0 0 -4.1997 -0.6606 0 0 -1.5801 0.6606 0 0 -1.9815zm3.4333 -0.1537c0,-0.2911 0.1053,-0.5433 0.3165,-0.752 0.2087,-0.2111 0.4633,-0.3165 0.7589,-0.3165 0.296,0 0.5482,0.1054 0.7593,0.3165 0.2107,0.2087 0.3141,0.4609 0.3141,0.752 0,0.296 -0.1034,0.5481 -0.3141,0.7593 -0.2111,0.2107 -0.4633,0.3165 -0.7593,0.3165 -0.2956,0 -0.5502,-0.1058 -0.7589,-0.3165 -0.2112,-0.2112 -0.3165,-0.4633 -0.3165,-0.7593zm0.2222 2.1356l1.7203 0 0 5.7794 -1.7203 0 0 -5.7794zm3.4952 -1.9819l1.72 0 0 1.9815 0.8257 0 0 1.5801 -0.8257 0 0 4.1997 -1.72 0 0 -4.1997 -0.6605 0 0 -1.5801 0.6605 0 0 -1.9815zm3.4333 -0.1537c0,-0.2911 0.1054,-0.5433 0.3165,-0.752 0.2087,-0.2111 0.4633,-0.3165 0.759,-0.3165 0.296,0 0.5481,0.1054 0.7593,0.3165 0.2107,0.2087 0.314,0.4609 0.314,0.752 0,0.296 -0.1033,0.5481 -0.314,0.7593 -0.2112,0.2107 -0.4633,0.3165 -0.7593,0.3165 -0.2957,0 -0.5503,-0.1058 -0.759,-0.3165 -0.2111,-0.2112 -0.3165,-0.4633 -0.3165,-0.7593zm0.2222 2.1356l1.7204 0 0 5.7794 -1.7204 0 0 -5.7794zm2.9172 0l1.8142 0 1.5847 3.3874 1.578 -3.3874 1.8024 0 -2.6806 5.7794 -1.4059 0 -2.6928 -5.7794zm13.1281 3.3001l-4.1193 0c0.023,0.3715 0.1448,0.6744 0.367,0.9057 0.2222,0.2341 0.4793,0.3509 0.7753,0.3509 0.5297,0 0.9426,-0.241 1.2431,-0.7203l1.5801 0.5252c-0.5871,1.025 -1.4997,1.5387 -2.7359,1.5387 -0.9081,0 -1.6305,-0.2755 -2.1693,-0.8278 -0.5367,-0.5506 -0.8052,-1.2911 -0.8052,-2.2226 0,-0.8392 0.2821,-1.5412 0.8487,-2.1098 0.5666,-0.5687 1.264,-0.8532 2.0938,-0.8532 0.8323,0 1.5273,0.2984 2.0849,0.897 0.5596,0.5982 0.8372,1.344 0.8372,2.2407l0 0.2755 -0.0004 0zm-4.1053 -1.1558l2.3255 0c-0.1603,-0.7204 -0.5322,-1.0828 -1.1099,-1.0828 -0.3304,0 -0.6051,0.0943 -0.8208,0.2821 -0.2181,0.1882 -0.3485,0.4563 -0.3944,0.8007l-0.0004 0zm7.1688 -2.1443l0 0.6855c0.5871,-0.5502 1.2041,-0.8257 1.8487,-0.8257 0.5502,0 1.0065,0.2267 1.3669,0.6786 0.36,0.4518 0.5412,1.0299 0.5412,1.7338l0 3.5067 -1.7474 0 0 -3.2311c0,-0.3326 -0.0894,-0.6126 -0.2731,-0.8397 -0.1812,-0.2292 -0.401,-0.3436 -0.6601,-0.3436 -0.3144,0 -0.5715,0.1443 -0.7732,0.4334 -0.2017,0.289 -0.3026,0.6629 -0.3026,1.1193l0 2.8622 -1.7204 0 0 -5.7794 1.7204 0 -0.0004 0zm10.8321 3.3001l-4.1192 0c0.0229,0.3715 0.1447,0.6744 0.3669,0.9057 0.2222,0.2341 0.4793,0.3509 0.7753,0.3509 0.5297,0 0.9426,-0.241 1.2431,-0.7203l1.5802 0.5252c-0.5872,1.025 -1.4998,1.5387 -2.736,1.5387 -0.9081,0 -1.6305,-0.2755 -2.1692,-0.8278 -0.5367,-0.5506 -0.8053,-1.2911 -0.8053,-2.2226 0,-0.8392 0.2821,-1.5412 0.8487,-2.1098 0.5666,-0.5687 1.264,-0.8532 2.0939,-0.8532 0.8323,0 1.5272,0.2984 2.0848,0.897 0.5596,0.5982 0.8372,1.344 0.8372,2.2407l0 0.2755 -0.0004 0zm-4.1053 -1.1558l2.3255 0c-0.1603,-0.7204 -0.5322,-1.0828 -1.1099,-1.0828 -0.3304,0 -0.6051,0.0943 -0.8208,0.2821 -0.2181,0.1882 -0.3485,0.4563 -0.3944,0.8007l-0.0004 0zm9.5685 -1.3304l-1.1697 0.7109c-0.335,-0.3395 -0.649,-0.5092 -0.9401,-0.5092 -0.1423,0 -0.2661,0.0389 -0.3694,0.1214 -0.1029,0.0803 -0.1534,0.1787 -0.1534,0.2935 0,0.1902 0.0574,0.3255 0.1767,0.4104 0.1193,0.0849 0.4359,0.2157 0.9516,0.3944 0.5142,0.1767 0.9221,0.4039 1.2181,0.6814 0.2981,0.2776 0.4473,0.663 0.4473,1.1558 0,0.4978 -0.2226,0.9242 -0.6719,1.28 -0.4473,0.3555 -0.984,0.5343 -1.6121,0.5343 -0.4244,0 -0.8487,-0.1193 -1.2731,-0.3555 -0.4243,-0.2386 -0.7823,-0.6011 -1.0779,-1.0894l1.3899 -0.6309c0.3141,0.5412 0.64,0.8122 0.9746,0.8122 0.1513,0 0.2886,-0.0484 0.4104,-0.1468 0.1218,-0.0988 0.1816,-0.2112 0.1816,-0.337 0,-0.1603 -0.0689,-0.2821 -0.2087,-0.367 -0.1377,-0.0828 -0.241,-0.1238 -0.3095,-0.1238 -0.0254,-0.0299 -0.1882,-0.0943 -0.4842,-0.1882 -1.1558,-0.3764 -1.7314,-0.986 -1.7314,-1.8347 0,-0.5092 0.2062,-0.9266 0.6191,-1.2522 0.4153,-0.3255 0.9561,-0.4862 1.6235,-0.4862 0.7384,0 1.4084,0.3075 2.009,0.9266l-0.0004 0zm5.8736 0l-1.1697 0.7109c-0.335,-0.3395 -0.649,-0.5092 -0.9401,-0.5092 -0.1423,0 -0.2661,0.0389 -0.3694,0.1214 -0.1029,0.0803 -0.1534,0.1787 -0.1534,0.2935 0,0.1902 0.0574,0.3255 0.1768,0.4104 0.1193,0.0849 0.4358,0.2157 0.9516,0.3944 0.5141,0.1767 0.922,0.4039 1.2181,0.6814 0.298,0.2776 0.4473,0.663 0.4473,1.1558 0,0.4978 -0.2227,0.9242 -0.672,1.28 -0.4473,0.3555 -0.984,0.5343 -1.6121,0.5343 -0.4244,0 -0.8487,-0.1193 -1.2731,-0.3555 -0.4239,-0.2386 -0.7818,-0.6011 -1.0779,-1.0894l1.3899 -0.6309c0.3141,0.5412 0.6396,0.8122 0.9746,0.8122 0.1513,0 0.289,-0.0484 0.4104,-0.1468 0.1218,-0.0988 0.1816,-0.2112 0.1816,-0.337 0,-0.1603 -0.0688,-0.2821 -0.2087,-0.367 -0.1377,-0.0828 -0.241,-0.1238 -0.3095,-0.1238 -0.0254,-0.0299 -0.1882,-0.0943 -0.4842,-0.1882 -1.1558,-0.3764 -1.7314,-0.986 -1.7314,-1.8347 0,-0.5092 0.2062,-0.9266 0.6191,-1.2522 0.4153,-0.3255 0.9561,-0.4862 1.6236,-0.4862 0.7384,0 1.4083,0.3075 2.0089,0.9266l-0.0004 0z"/>
   <path id="_245427760" class="fil8" d="M38.9812 109.479l-1.1559 1.2658c-0.6068,-0.3586 -1.046,-0.5376 -1.3126,-0.5376 -0.2057,0 -0.3826,0.0783 -0.5306,0.2329 -0.148,0.1545 -0.2242,0.3407 -0.2242,0.5556 0,0.4234 0.3853,0.7907 1.1559,1.102 0.5643,0.2395 0.9899,0.4566 1.2789,0.6514 0.2889,0.1948 0.5311,0.4659 0.7259,0.8109 0.1949,0.3472 0.2912,0.7189 0.2912,1.1221 0,0.739 -0.2982,1.3817 -0.8963,1.9308 -0.5954,0.5464 -1.3012,0.8196 -2.1143,0.8196 -0.8936,0 -1.7735,-0.4212 -2.6448,-1.2609l1.2206 -1.4247c0.5464,0.5649 1.0591,0.8467 1.5342,0.8467 0.2236,0 0.4391,-0.0985 0.6448,-0.2976 0.2041,-0.1998 0.307,-0.4076 0.307,-0.6275 0,-0.45 -0.4751,-0.8462 -1.422,-1.1869 -0.5448,-0.197 -0.9295,-0.3809 -1.1559,-0.5556 -0.2286,-0.172 -0.4191,-0.4229 -0.5736,-0.7521 -0.1568,-0.332 -0.233,-0.6699 -0.233,-1.0149 0,-0.7657 0.2487,-1.3861 0.7483,-1.8634 0.4974,-0.4772 1.1489,-0.7145 1.9554,-0.7145 0.9518,0 1.7534,0.2977 2.401,0.8979zm6.7368 5.4137l-4.0223 0c0.0223,0.363 0.141,0.6585 0.3581,0.8849 0.2171,0.228 0.468,0.3423 0.757,0.3423 0.5175,0 0.9208,-0.2351 1.2141,-0.7031l1.5434 0.5132c-0.5736,1.0007 -1.465,1.5025 -2.6721,1.5025 -0.887,0 -1.5929,-0.2688 -2.1191,-0.8087 -0.5241,-0.5371 -0.7858,-1.2609 -0.7858,-2.1702 0,-0.8196 0.2753,-1.5048 0.8282,-2.0604 0.5535,-0.5556 1.2343,-0.8332 2.0452,-0.8332 0.813,0 1.4917,0.2912 2.0359,0.8757 0.5463,0.5844 0.8174,1.3126 0.8174,2.1882l0 0.2688zm-4.0092 -1.1286l2.2715 0c-0.1567,-0.7037 -0.5197,-1.0574 -1.0841,-1.0574 -0.3227,0 -0.5915,0.0919 -0.8021,0.2753 -0.2128,0.184 -0.3401,0.4457 -0.3853,0.7821zm6.7911 -2.0941l0 0.8353 0.0267 0c0.166,-0.2802 0.3608,-0.5039 0.5801,-0.6677 0.2215,-0.1633 0.4256,-0.2465 0.6139,-0.2465 0.1143,0 0.2171,0.0092 0.3091,0.0272l0 1.8366c-0.1415,-0.025 -0.2781,-0.038 -0.4147,-0.038 -0.345,0 -0.6133,0.1208 -0.8016,0.3624 -0.1905,0.2443 -0.2868,0.585 -0.2868,1.0214l0 2.5132 -1.7066 0 0 -5.6439 1.6799 0zm2.3113 0l1.7714 0 1.5477 3.3076 1.5412 -3.3076 1.7605 0 -2.6182 5.6439 -1.373 0 -2.6296 -5.6439zm7.559 -2.0854c0,-0.2846 0.1029,-0.5311 0.3092,-0.7347 0.2035,-0.2062 0.4522,-0.3091 0.7412,-0.3091 0.2889,0 0.5355,0.1029 0.7412,0.3091 0.2062,0.2036 0.3069,0.4501 0.3069,0.7347 0,0.289 -0.1007,0.535 -0.3069,0.7412 -0.2057,0.2063 -0.4523,0.3091 -0.7412,0.3091 -0.289,0 -0.5377,-0.1028 -0.7412,-0.3091 -0.2063,-0.2062 -0.3092,-0.4522 -0.3092,-0.7412zm0.2172 2.0854l1.6799 0 0 5.6439 -1.6799 0 0 -5.6439zm5.2233 0l0 0.6693c0.573,-0.5376 1.176,-0.8065 1.8057,-0.8065 0.5376,0 0.9833,0.2221 1.3349,0.6634 0.3516,0.4408 0.5284,1.0057 0.5284,1.693l0 3.4247 -1.7066 0 0 -3.1558c0,-0.3249 -0.0876,-0.5981 -0.2667,-0.8196 -0.1768,-0.2242 -0.3918,-0.3363 -0.6449,-0.3363 -0.3069,0 -0.5583,0.1415 -0.7553,0.4234 -0.197,0.2824 -0.2955,0.6476 -0.2955,1.0933l0 2.795 -1.68 0 0 -5.6439 1.68 0zm9.0823 5.3211l0 -0.6606c-0.5018,0.6383 -1.0841,0.9567 -1.7448,0.9567 -0.708,0 -1.3012,-0.2732 -1.7763,-0.8201 -0.4723,-0.5464 -0.7096,-1.2315 -0.7096,-2.0538 0,-0.7951 0.2438,-1.4737 0.7369,-2.0315 0.4925,-0.5573 1.084,-0.8354 1.7757,-0.8354 0.585,0 1.1581,0.307 1.7181,0.9186l0 -0.782 1.6663 0 0 5.7092c0,0.3157 -0.0985,0.6765 -0.2977,1.0862 -0.1991,0.4098 -0.5376,0.7102 -1.0171,0.905 -0.4789,0.1949 -1.0323,0.2934 -1.6642,0.2934 -0.7814,0 -1.4084,-0.1481 -1.8791,-0.4414 -0.4702,-0.2911 -0.8082,-0.7951 -1.0144,-1.5074l1.8835 0c0.3673,0.511 0.7662,0.7662 1.194,0.7662 0.3336,0 0.6046,-0.1387 0.8152,-0.4168 0.2084,-0.2776 0.3135,-0.6384 0.3135,-1.0863zm-2.4413 -2.5305c0,0.2863 0.1278,0.5687 0.3787,0.8419 0.2509,0.2732 0.5442,0.4098 0.8822,0.4098 0.327,0 0.6095,-0.1295 0.8424,-0.3897 0.2351,-0.2595 0.3516,-0.5779 0.3516,-0.9539 0,-0.3853 -0.1121,-0.7031 -0.3336,-0.9518 -0.2242,-0.2509 -0.511,-0.3745 -0.8604,-0.3745 -0.3538,0 -0.6542,0.1301 -0.8958,0.3902 -0.2422,0.2596 -0.3651,0.6025 -0.3651,1.028zm14.281 -4.9816l-1.1559 1.2658c-0.6067,-0.3586 -1.0459,-0.5376 -1.3126,-0.5376 -0.2057,0 -0.3826,0.0783 -0.5306,0.2329 -0.148,0.1545 -0.2242,0.3407 -0.2242,0.5556 0,0.4234 0.3853,0.7907 1.1559,1.102 0.5643,0.2395 0.9899,0.4566 1.2789,0.6514 0.289,0.1948 0.5311,0.4659 0.726,0.8109 0.1948,0.3472 0.2911,0.7189 0.2911,1.1221 0,0.739 -0.2982,1.3817 -0.8963,1.9308 -0.5954,0.5464 -1.3012,0.8196 -2.1142,0.8196 -0.8936,0 -1.7736,-0.4212 -2.6449,-1.2609l1.2207 -1.4247c0.5463,0.5649 1.059,0.8467 1.5341,0.8467 0.2237,0 0.4392,-0.0985 0.6449,-0.2976 0.2041,-0.1998 0.3069,-0.4076 0.3069,-0.6275 0,-0.45 -0.4751,-0.8462 -1.422,-1.1869 -0.5448,-0.197 -0.9295,-0.3809 -1.1559,-0.5556 -0.2286,-0.172 -0.419,-0.4229 -0.5736,-0.7521 -0.1567,-0.332 -0.2329,-0.6699 -0.2329,-1.0149 0,-0.7657 0.2487,-1.3861 0.7483,-1.8634 0.4974,-0.4772 1.1488,-0.7145 1.9553,-0.7145 0.9518,0 1.7534,0.2977 2.401,0.8979zm3.2544 2.191l0 0.9001c0.0784,-0.0539 0.1927,-0.1546 0.3467,-0.3026 0.1523,-0.1475 0.3004,-0.2732 0.4435,-0.376 0.1415,-0.1029 0.3113,-0.1862 0.511,-0.2509 0.1992,-0.0626 0.3782,-0.0942 0.542,-0.0942 0.2574,0 0.5377,0.0898 0.8398,0.2711 0.3025,0.1817 0.5534,0.5039 0.7548,0.9697 0.3493,-0.4479 0.6922,-0.7657 1.0258,-0.9561 0.3358,-0.1905 0.6476,-0.2847 0.936,-0.2847 0.511,0 0.9453,0.2106 1.2996,0.634 0.3537,0.4212 0.5306,0.9404 0.5306,1.5564l0 3.5771 -1.68 0 0 -3.1292c0,-0.3113 -0.0849,-0.573 -0.2552,-0.7858 -0.1703,-0.2106 -0.376,-0.3184 -0.6182,-0.3184 -0.289,0 -0.5377,0.1214 -0.7483,0.3608 -0.2079,0.2422 -0.3135,0.5285 -0.3135,0.8599l0 3.0127 -1.6663 0 0 -3.0508c0,-0.3293 -0.0871,-0.6046 -0.2596,-0.8305 -0.1725,-0.2264 -0.381,-0.3385 -0.6275,-0.3385 -0.289,0 -0.5371,0.123 -0.7477,0.3717 -0.2106,0.2466 -0.3135,0.5421 -0.3135,0.8893l0 2.9588 -1.6936 0 0 -5.6439 1.6936 0zm12.6164 5.6439l0 -0.9655 -0.0245 0c-0.264,0.3766 -0.5284,0.6498 -0.7951,0.8174 -0.2667,0.1682 -0.5959,0.2531 -0.9899,0.2531 -0.6607,0 -1.2229,-0.2841 -1.6865,-0.8533 -0.4637,-0.5687 -0.6966,-1.2587 -0.6966,-2.074 0,-0.8037 0.2487,-1.4938 0.7412,-2.0695 0.4952,-0.5753 1.0819,-0.8621 1.7583,-0.8621 0.3249,0 0.6161,0.0719 0.8735,0.215 0.2574,0.1453 0.5311,0.3739 0.8196,0.69l0 -0.782 1.6799 0 0 5.6309 -1.6799 0zm-1.2316 -4.0739c-0.3336,0 -0.6117,0.1317 -0.8353,0.3962 -0.2221,0.2644 -0.3342,0.598 -0.3342,1.0013 0,0.376 0.1056,0.6786 0.3184,0.9072 0.2128,0.2307 0.4903,0.3444 0.8375,0.3444 0.3314,0 0.6161,-0.1316 0.8533,-0.3961 0.2351,-0.2645 0.3538,-0.5845 0.3538,-0.9611 0,-0.3494 -0.1187,-0.6536 -0.3538,-0.9093 -0.2372,-0.2553 -0.5175,-0.3826 -0.8397,-0.3826zm4.6584 -4.6856l1.68 0 0 8.7595 -1.68 0 0 -8.7595zm3.4917 0l1.68 0 0 8.7595 -1.68 0 0 -8.7595zm10.7486 4.5261l1.1695 1.3731 0.9317 -0.9138 0.8713 1.0302c-0.0158,0.0272 -0.1616,0.1818 -0.4327,0.4637 -0.271,0.2824 -0.4342,0.4277 -0.4925,0.437l1.5815 1.8432 -2.1055 0 -0.7146 -0.8196c-0.6699,0.3896 -1.1537,0.6449 -1.4514,0.7679 -0.2977,0.1213 -0.6046,0.1839 -0.9251,0.1839 -0.363,0 -0.7369,-0.0762 -1.1222,-0.2264 -0.3853,-0.1524 -0.6895,-0.4054 -0.9115,-0.7613 -0.2237,-0.3586 -0.3358,-0.7439 -0.3358,-1.1581 0,-0.9452 0.6111,-1.7311 1.8318,-2.3564 -0.5371,-0.6563 -0.8082,-1.3055 -0.8082,-1.9482 0,-0.5398 0.215,-1.0057 0.6406,-1.3975 0.4277,-0.3945 0.9404,-0.5915 1.5384,-0.5915 0.6297,0 1.1581,0.1904 1.5815,0.5736 0.4256,0.3825 0.6362,0.8554 0.6362,1.4154 0,0.4637 -0.1769,0.8756 -0.5333,1.2364 -0.3581,0.3603 -0.6743,0.6449 -0.9497,0.8484zm-0.8059 -0.9828c0.5463,-0.4255 0.8195,-0.8179 0.8195,-1.1804 0,-0.2106 -0.0626,-0.3787 -0.1904,-0.5061 -0.1279,-0.1278 -0.2955,-0.1904 -0.504,-0.1904 -0.197,0 -0.3608,0.0691 -0.486,0.2057 -0.1278,0.1388 -0.1904,0.314 -0.1904,0.5289 0,0.2618 0.1839,0.6427 0.5513,1.1423zm0.0985 2.6111c-0.0273,-0.0267 -0.11,-0.1252 -0.2466,-0.2955 -0.1387,-0.1704 -0.2487,-0.2977 -0.3314,-0.3804 -0.4773,0.4207 -0.7145,0.8195 -0.7145,1.2005 0,0.1834 0.0718,0.3466 0.2149,0.486 0.1453,0.1409 0.3157,0.2106 0.5127,0.2106 0.2846,0 0.6742,-0.1704 1.1673,-0.5132l-0.6024 -0.708zm9.7255 -6.0112l2.204 0 1.6147 5.165 1.6152 -5.165 2.1322 0 1.102 8.6163 -1.7719 0 -0.7548 -6.063 -1.895 6.063 -0.8462 0 -1.9445 -6.1147 -0.7145 6.1147 -1.7991 0 1.0579 -8.6163zm15.2035 6.1951l-4.0222 0c0.0223,0.363 0.1409,0.6585 0.3581,0.8849 0.2171,0.228 0.468,0.3423 0.757,0.3423 0.5175,0 0.9208,-0.2351 1.2141,-0.7031l1.5434 0.5132c-0.5736,1.0007 -1.465,1.5025 -2.6721,1.5025 -0.8871,0 -1.5929,-0.2688 -2.1191,-0.8087 -0.5241,-0.5371 -0.7859,-1.2609 -0.7859,-2.1702 0,-0.8196 0.2754,-1.5048 0.8283,-2.0604 0.5535,-0.5556 1.2343,-0.8332 2.0451,-0.8332 0.8131,0 1.4917,0.2912 2.0359,0.8757 0.5464,0.5844 0.8174,1.3126 0.8174,2.1882l0 0.2688zm-4.0092 -1.1286l2.2716 0c-0.1568,-0.7037 -0.5198,-1.0574 -1.0841,-1.0574 -0.3227,0 -0.5915,0.0919 -0.8022,0.2753 -0.2127,0.184 -0.3401,0.4457 -0.3853,0.7821zm8.9365 -5.2097l1.6935 0 0 8.7595 -1.6527 0 0 -0.9655 -0.0272 0c-0.4904,0.7059 -1.0977,1.0574 -1.8231,1.0574 -0.6471,0 -1.2005,-0.2824 -1.6577,-0.8467 -0.4566,-0.5644 -0.6851,-1.2522 -0.6851,-2.0675 0,-0.813 0.2351,-1.5074 0.708,-2.0826 0.4724,-0.5758 1.0389,-0.8626 1.6995,-0.8626 0.3766,0 0.6945,0.0697 0.9524,0.2063 0.2574,0.1388 0.5214,0.363 0.7924,0.6715l0 -3.8698zm-1.2386 4.6584c-0.2754,0 -0.535,0.1279 -0.775,0.3809 -0.2394,0.2531 -0.3603,0.5959 -0.3603,1.0302 0,0.345 0.1051,0.6405 0.3179,0.8849 0.2127,0.2459 0.468,0.3673 0.7706,0.3673 0.3586,0 0.6584,-0.1323 0.8979,-0.3967 0.2422,-0.264 0.363,-0.5932 0.363,-0.9878 0,-0.3401 -0.1187,-0.6383 -0.3516,-0.8957 -0.2351,-0.2552 -0.5219,-0.3831 -0.8625,-0.3831zm4.4886 -3.6282c0,-0.2846 0.1028,-0.5311 0.3091,-0.7347 0.2035,-0.2062 0.4522,-0.3091 0.7412,-0.3091 0.289,0 0.5355,0.1029 0.7412,0.3091 0.2063,0.2036 0.3069,0.4501 0.3069,0.7347 0,0.289 -0.1006,0.535 -0.3069,0.7412 -0.2057,0.2063 -0.4522,0.3091 -0.7412,0.3091 -0.289,0 -0.5377,-0.1028 -0.7412,-0.3091 -0.2063,-0.2062 -0.3091,-0.4522 -0.3091,-0.7412zm0.2171 2.0854l1.68 0 0 5.6439 -1.68 0 0 -5.6439zm3.3997 0.013l1.7044 0 0 2.7036c0,0.3897 0.1013,0.7145 0.3004,0.9741 0.1992,0.2623 0.4436,0.3919 0.7369,0.3919 0.3113,0 0.5736,-0.1252 0.7837,-0.3783 0.2127,-0.2508 0.3183,-0.5665 0.3183,-0.9474l0 -2.7439 1.7067 0 0 3.2816c0,0.6965 -0.2645,1.2788 -0.7973,1.749 -0.5312,0.4702 -1.194,0.7053 -1.9847,0.7053 -0.8397,0 -1.5118,-0.2373 -2.0136,-0.7096 -0.5039,-0.4708 -0.7548,-1.0999 -0.7548,-1.8813l0 -3.145zm8.919 -0.013l0 0.9001c0.0784,-0.0539 0.1927,-0.1546 0.3467,-0.3026 0.1523,-0.1475 0.3004,-0.2732 0.4435,-0.376 0.1415,-0.1029 0.3113,-0.1862 0.511,-0.2509 0.1992,-0.0626 0.3782,-0.0942 0.542,-0.0942 0.2574,0 0.5377,0.0898 0.8397,0.2711 0.3026,0.1817 0.5535,0.5039 0.7549,0.9697 0.3493,-0.4479 0.6922,-0.7657 1.0258,-0.9561 0.3358,-0.1905 0.6476,-0.2847 0.936,-0.2847 0.511,0 0.9453,0.2106 1.2996,0.634 0.3537,0.4212 0.5306,0.9404 0.5306,1.5564l0 3.5771 -1.68 0 0 -3.1292c0,-0.3113 -0.0849,-0.573 -0.2552,-0.7858 -0.1703,-0.2106 -0.376,-0.3184 -0.6182,-0.3184 -0.289,0 -0.5377,0.1214 -0.7483,0.3608 -0.2079,0.2422 -0.3135,0.5285 -0.3135,0.8599l0 3.0127 -1.6663 0 0 -3.0508c0,-0.3293 -0.0871,-0.6046 -0.2596,-0.8305 -0.1725,-0.2264 -0.381,-0.3385 -0.6275,-0.3385 -0.289,0 -0.5371,0.123 -0.7477,0.3717 -0.2106,0.2466 -0.3135,0.5421 -0.3135,0.8893l0 2.9588 -1.6936 0 0 -5.6439 1.6936 0zm12.5407 -2.9724l4.8489 0 0 1.7066 -2.992 0 0 1.7381 2.992 0 0 1.68 -2.992 0 0 1.785 2.992 0 0 1.7066 -4.8489 0 0 -8.6163zm8.155 2.9724l0 0.6693c0.573,-0.5376 1.1755,-0.8065 1.8051,-0.8065 0.5377,0 0.9834,0.2221 1.335,0.6634 0.3515,0.4408 0.5284,1.0057 0.5284,1.693l0 3.4247 -1.7067 0 0 -3.1558c0,-0.3249 -0.0876,-0.5981 -0.2666,-0.8196 -0.1769,-0.2242 -0.3918,-0.3363 -0.6449,-0.3363 -0.3069,0 -0.5578,0.1415 -0.7548,0.4234 -0.197,0.2824 -0.2955,0.6476 -0.2955,1.0933l0 2.795 -1.68 0 0 -5.6439 1.68 0zm5.3234 -1.9352l1.6805 0 0 1.9352 0.806 0 0 1.5428 -0.806 0 0 4.1011 -1.6805 0 0 -4.1011 -0.6449 0 0 -1.5428 0.6449 0 0 -1.9352zm8.7465 5.1579l-4.0222 0c0.0223,0.363 0.1409,0.6585 0.3581,0.8849 0.2171,0.228 0.468,0.3423 0.757,0.3423 0.5175,0 0.9208,-0.2351 1.2141,-0.7031l1.5434 0.5132c-0.5736,1.0007 -1.465,1.5025 -2.6721,1.5025 -0.8871,0 -1.5929,-0.2688 -2.1191,-0.8087 -0.5241,-0.5371 -0.7859,-1.2609 -0.7859,-2.1702 0,-0.8196 0.2754,-1.5048 0.8283,-2.0604 0.5535,-0.5556 1.2343,-0.8332 2.0451,-0.8332 0.8131,0 1.4917,0.2912 2.0359,0.8757 0.5464,0.5844 0.8174,1.3126 0.8174,2.1882l0 0.2688zm-4.0092 -1.1286l2.2716 0c-0.1568,-0.7037 -0.5198,-1.0574 -1.0841,-1.0574 -0.3227,0 -0.5915,0.0919 -0.8022,0.2753 -0.2127,0.184 -0.3401,0.4457 -0.3853,0.7821zm6.7912 -2.0941l0 0.8353 0.0267 0c0.166,-0.2802 0.3608,-0.5039 0.5801,-0.6677 0.2215,-0.1633 0.4256,-0.2465 0.6139,-0.2465 0.1143,0 0.2171,0.0092 0.3091,0.0272l0 1.8366c-0.1415,-0.025 -0.2781,-0.038 -0.4147,-0.038 -0.345,0 -0.6133,0.1208 -0.8016,0.3624 -0.1905,0.2443 -0.2868,0.585 -0.2868,1.0214l0 2.5132 -1.7067 0 0 -5.6439 1.68 0zm4.3248 0.013l0 0.8223 0.0267 0c0.2443,-0.3292 0.4996,-0.5692 0.7641,-0.7189 0.2639,-0.1523 0.5823,-0.2264 0.954,-0.2264 0.6742,0 1.2495,0.2934 1.7224,0.8849 0.4745,0.591 0.7123,1.3077 0.7123,2.1523 0,0.775 -0.2307,1.4378 -0.6922,1.9912 -0.4615,0.5529 -1.0079,0.8305 -1.644,0.8305 -0.3897,0 -0.7146,-0.0806 -0.9763,-0.2438 -0.2624,-0.1611 -0.5334,-0.419 -0.8131,-0.7728l-0.0272 0 0 3.3975 -1.7066 0 0 -8.1168 1.6799 0zm2.4212 2.9006c0,-0.3673 -0.1186,-0.683 -0.3537,-0.9474 -0.2378,-0.2645 -0.5197,-0.3962 -0.8468,-0.3962 -0.3249,0 -0.6003,0.1295 -0.8267,0.3896 -0.2285,0.2596 -0.3401,0.578 -0.3401,0.954 0,0.363 0.1186,0.6743 0.3559,0.9317 0.2395,0.2574 0.5284,0.3875 0.8691,0.3875 0.3336,0 0.6068,-0.123 0.8218,-0.3674 0.2128,-0.2438 0.3205,-0.5621 0.3205,-0.9518zm4.5937 -2.9136l0 0.8353 0.0266 0c0.166,-0.2802 0.3608,-0.5039 0.5802,-0.6677 0.2214,-0.1633 0.4255,-0.2465 0.6138,-0.2465 0.1143,0 0.2172,0.0092 0.3091,0.0272l0 1.8366c-0.1415,-0.025 -0.2781,-0.038 -0.4147,-0.038 -0.345,0 -0.6133,0.1208 -0.8016,0.3624 -0.1904,0.2443 -0.2868,0.585 -0.2868,1.0214l0 2.5132 -1.7066 0 0 -5.6439 1.68 0zm2.4679 -2.0854c0,-0.2846 0.1029,-0.5311 0.3092,-0.7347 0.2035,-0.2062 0.4522,-0.3091 0.7412,-0.3091 0.2889,0 0.5355,0.1029 0.7412,0.3091 0.2062,0.2036 0.3069,0.4501 0.3069,0.7347 0,0.289 -0.1007,0.535 -0.3069,0.7412 -0.2057,0.2063 -0.4523,0.3091 -0.7412,0.3091 -0.289,0 -0.5377,-0.1028 -0.7412,-0.3091 -0.2063,-0.2062 -0.3092,-0.4522 -0.3092,-0.7412zm0.2172 2.0854l1.68 0 0 5.6439 -1.68 0 0 -5.6439zm7.5661 0.795l-1.1423 0.6939c-0.3271,-0.3314 -0.634,-0.4969 -0.9186,-0.4969 -0.1388,0 -0.2596,0.0381 -0.3608,0.1187 -0.1007,0.0783 -0.1497,0.1747 -0.1497,0.2868 0,0.1855 0.0561,0.3178 0.1725,0.4005 0.1165,0.0833 0.4256,0.2106 0.9295,0.3853 0.5018,0.1725 0.9002,0.3945 1.1891,0.6656 0.2912,0.271 0.437,0.647 0.437,1.1286 0,0.486 -0.2176,0.9028 -0.6563,1.2495 -0.437,0.3472 -0.9611,0.5219 -1.5749,0.5219 -0.4142,0 -0.8283,-0.1165 -1.243,-0.3467 -0.4141,-0.2334 -0.7635,-0.5872 -1.0525,-1.0639l1.3573 -0.616c0.3069,0.5284 0.6247,0.7929 0.9518,0.7929 0.148,0 0.2824,-0.0474 0.4011,-0.1437 0.1186,-0.0963 0.1768,-0.2057 0.1768,-0.3292 0,-0.1567 -0.0674,-0.2754 -0.204,-0.3581 -0.1345,-0.0805 -0.2351,-0.1208 -0.3021,-0.1208 -0.0245,-0.0294 -0.1839,-0.092 -0.4729,-0.184 -1.1287,-0.3673 -1.6908,-0.9632 -1.6908,-1.7915 0,-0.4974 0.2013,-0.905 0.6046,-1.2233 0.4054,-0.3178 0.9344,-0.4746 1.5858,-0.4746 0.7211,0 1.3752,0.2999 1.9624,0.905zm6.8374 2.4277l-4.0222 0c0.0223,0.363 0.1409,0.6585 0.3581,0.8849 0.2171,0.228 0.468,0.3423 0.757,0.3423 0.5175,0 0.9208,-0.2351 1.2141,-0.7031l1.5434 0.5132c-0.5736,1.0007 -1.465,1.5025 -2.6721,1.5025 -0.887,0 -1.5929,-0.2688 -2.1191,-0.8087 -0.5241,-0.5371 -0.7859,-1.2609 -0.7859,-2.1702 0,-0.8196 0.2754,-1.5048 0.8283,-2.0604 0.5535,-0.5556 1.2343,-0.8332 2.0451,-0.8332 0.8131,0 1.4917,0.2912 2.0359,0.8757 0.5464,0.5844 0.8174,1.3126 0.8174,2.1882l0 0.2688zm-4.0092 -1.1286l2.2716 0c-0.1568,-0.7037 -0.5197,-1.0574 -1.0841,-1.0574 -0.3227,0 -0.5915,0.0919 -0.8022,0.2753 -0.2127,0.184 -0.3401,0.4457 -0.3853,0.7821zm9.3446 -1.2991l-1.1423 0.6939c-0.327,-0.3314 -0.634,-0.4969 -0.9186,-0.4969 -0.1387,0 -0.2596,0.0381 -0.3608,0.1187 -0.1007,0.0783 -0.1496,0.1747 -0.1496,0.2868 0,0.1855 0.056,0.3178 0.1725,0.4005 0.1164,0.0833 0.4255,0.2106 0.9295,0.3853 0.5017,0.1725 0.9001,0.3945 1.1891,0.6656 0.2911,0.271 0.437,0.647 0.437,1.1286 0,0.486 -0.2177,0.9028 -0.6563,1.2495 -0.437,0.3472 -0.9611,0.5219 -1.575,0.5219 -0.4141,0 -0.8283,-0.1165 -1.243,-0.3467 -0.4141,-0.2334 -0.7635,-0.5872 -1.0524,-1.0639l1.3572 -0.616c0.3069,0.5284 0.6248,0.7929 0.9518,0.7929 0.148,0 0.2825,-0.0474 0.4011,-0.1437 0.1186,-0.0963 0.1769,-0.2057 0.1769,-0.3292 0,-0.1567 -0.0675,-0.2754 -0.2041,-0.3581 -0.1344,-0.0805 -0.2351,-0.1208 -0.302,-0.1208 -0.0245,-0.0294 -0.184,-0.092 -0.473,-0.184 -1.1286,-0.3673 -1.6908,-0.9632 -1.6908,-1.7915 0,-0.4974 0.2013,-0.905 0.6046,-1.2233 0.4054,-0.3178 0.9344,-0.4746 1.5858,-0.4746 0.7211,0 1.3752,0.2999 1.9624,0.905zm8.2894 -3.7l0 1.6125c-0.253,-0.1703 -0.4729,-0.2552 -0.6563,-0.2552 -0.2351,0 -0.4278,0.0849 -0.5736,0.2552 -0.1475,0.1703 -0.2193,0.3918 -0.2193,0.6628l0 0.6297 1.4356 0 0 1.5297 -1.4492 0 0 4.1142 -1.68 0 0 -4.1142 -0.499 0 0 -1.5297 0.499 0 0 -0.6879c0,-0.9583 0.2019,-1.6059 0.6095,-1.9466 0.4076,-0.3379 0.8849,-0.5083 1.4313,-0.5083 0.4321,0 0.7994,0.0784 1.102,0.2378zm2.6764 2.905l0 0.8353 0.0267 0c0.166,-0.2802 0.3608,-0.5039 0.5801,-0.6677 0.2215,-0.1633 0.4256,-0.2465 0.6139,-0.2465 0.1143,0 0.2171,0.0092 0.3091,0.0272l0 1.8366c-0.1415,-0.025 -0.2781,-0.038 -0.4147,-0.038 -0.345,0 -0.6133,0.1208 -0.8016,0.3624 -0.1905,0.2443 -0.2868,0.585 -0.2868,1.0214l0 2.5132 -1.7066 0 0 -5.6439 1.6799 0zm2.4544 2.8352c0,-0.8712 0.2781,-1.5814 0.8332,-2.1321 0.5556,-0.5513 1.2702,-0.8267 2.1393,-0.8267 0.8108,0 1.49,0.2803 2.0386,0.8425 0.5485,0.5621 0.8244,1.2587 0.8244,2.0897 0,0.8484 -0.2759,1.5542 -0.8244,2.1142 -0.5486,0.56 -1.237,0.8397 -2.0637,0.8397 -0.9317,0 -1.6571,-0.2977 -2.1725,-0.8892 -0.5175,-0.5932 -0.7749,-1.2718 -0.7749,-2.0381zm4.1795 0c0,-0.3809 -0.123,-0.7123 -0.3739,-0.9969 -0.2487,-0.2841 -0.5398,-0.4278 -0.8712,-0.4278 -0.3472,0 -0.6427,0.1345 -0.8936,0.4011 -0.2487,0.2667 -0.3744,0.5867 -0.3744,0.9589 0,0.4054 0.1235,0.7521 0.3717,1.0367 0.2465,0.2846 0.5447,0.4256 0.8963,0.4256 0.3314,0 0.6225,-0.1388 0.8712,-0.4164 0.2509,-0.278 0.3739,-0.6051 0.3739,-0.9812zm4.8788 -2.8352l0 0.9001c0.0784,-0.0539 0.1927,-0.1546 0.3467,-0.3026 0.1524,-0.1475 0.3004,-0.2732 0.4435,-0.376 0.1415,-0.1029 0.3113,-0.1862 0.511,-0.2509 0.1992,-0.0626 0.3783,-0.0942 0.5421,-0.0942 0.2574,0 0.5376,0.0898 0.8397,0.2711 0.3026,0.1817 0.5534,0.5039 0.7548,0.9697 0.3494,-0.4479 0.6922,-0.7657 1.0258,-0.9561 0.3358,-0.1905 0.6476,-0.2847 0.9361,-0.2847 0.511,0 0.9452,0.2106 1.2995,0.634 0.3538,0.4212 0.5306,0.9404 0.5306,1.5564l0 3.5771 -1.6799 0 0 -3.1292c0,-0.3113 -0.0849,-0.573 -0.2553,-0.7858 -0.1703,-0.2106 -0.376,-0.3184 -0.6182,-0.3184 -0.289,0 -0.5377,0.1214 -0.7483,0.3608 -0.2079,0.2422 -0.3134,0.5285 -0.3134,0.8599l0 3.0127 -1.6664 0 0 -3.0508c0,-0.3293 -0.0871,-0.6046 -0.2596,-0.8305 -0.1725,-0.2264 -0.3809,-0.3385 -0.6275,-0.3385 -0.2889,0 -0.5371,0.123 -0.7477,0.3717 -0.2106,0.2466 -0.3135,0.5421 -0.3135,0.8893l0 2.9588 -1.6935 0 0 -5.6439 1.6935 0zm13.3984 -2.715l2.7167 0 0 8.3589 -1.8296 0 0 -6.8379 -1.2071 0 0.32 -1.521zm9.3261 8.3589l-2.2307 0 2.0854 -2.8353c-0.3918,0.0446 -0.6449,0.0669 -0.7548,0.0669 -0.739,0 -1.3616,-0.271 -1.8726,-0.8108 -0.5105,-0.5399 -0.7636,-1.2071 -0.7636,-1.9978 0,-0.8266 0.3113,-1.521 0.9383,-2.0832 0.6247,-0.5621 1.4024,-0.844 2.3292,-0.844 0.8827,0 1.6038,0.2846 2.1616,0.8511 0.5578,0.5643 0.8375,1.299 0.8375,2.1991 0,0.6563 -0.1633,1.3126 -0.4903,1.9689 -0.3249,0.6563 -0.6025,1.1466 -0.8289,1.4715l-1.4111 2.0136zm0.9524 -5.472c0,-0.3716 -0.1301,-0.6873 -0.3853,-0.9425 -0.2558,-0.2552 -0.5736,-0.3831 -0.9546,-0.3831 -0.3357,0 -0.6269,0.13 -0.8734,0.394 -0.2438,0.2623 -0.3674,0.5714 -0.3674,0.9316 0,0.363 0.1236,0.6678 0.3717,0.9186 0.2466,0.2487 0.5448,0.3739 0.8963,0.3739 0.3581,0 0.6672,-0.1273 0.9247,-0.3804 0.2579,-0.2536 0.388,-0.5578 0.388,-0.9121zm6.1811 5.472l-2.2307 0 2.0854 -2.8353c-0.3918,0.0446 -0.6449,0.0669 -0.7548,0.0669 -0.7391,0 -1.3616,-0.271 -1.8727,-0.8108 -0.5104,-0.5399 -0.7635,-1.2071 -0.7635,-1.9978 0,-0.8266 0.3113,-1.521 0.9382,-2.0832 0.6248,-0.5621 1.4025,-0.844 2.3292,-0.844 0.8827,0 1.6038,0.2846 2.1616,0.8511 0.5578,0.5643 0.8376,1.299 0.8376,2.1991 0,0.6563 -0.1633,1.3126 -0.4904,1.9689 -0.3249,0.6563 -0.6024,1.1466 -0.8288,1.4715l-1.4111 2.0136zm0.9523 -5.472c0,-0.3716 -0.13,-0.6873 -0.3853,-0.9425 -0.2557,-0.2552 -0.5735,-0.3831 -0.9545,-0.3831 -0.3358,0 -0.6269,0.13 -0.8734,0.394 -0.2439,0.2623 -0.3674,0.5714 -0.3674,0.9316 0,0.363 0.1235,0.6678 0.3717,0.9186 0.2465,0.2487 0.5448,0.3739 0.8963,0.3739 0.3581,0 0.6672,-0.1273 0.9246,-0.3804 0.258,-0.2536 0.388,-0.5578 0.388,-0.9121zm4.6068 -0.5061l-1.6931 0c0.0512,-0.7656 0.3336,-1.3795 0.8419,-1.8432 0.5105,-0.4636 1.1222,-0.6965 1.8345,-0.6965 0.7837,0 1.4493,0.222 1.9978,0.6677 0.5486,0.443 0.8245,0.9785 0.8245,1.6032 0,0.6835 -0.3363,1.299 -1.0106,1.8503 0.4278,0.271 0.7418,0.5556 0.9409,0.8489 0.1992,0.2955 0.2977,0.6493 0.2977,1.0618 0,0.7814 -0.2596,1.4105 -0.7793,1.8813 -0.5219,0.4723 -1.2092,0.7096 -2.0674,0.7096 -0.7951,0 -1.4558,-0.2259 -1.9777,-0.6786 -0.524,-0.4544 -0.8468,-1.0813 -0.9676,-1.8879l1.7317 0c0.2057,0.7973 0.6024,1.1962 1.1869,1.1962 0.2933,0 0.5399,-0.1056 0.7412,-0.314 0.2019,-0.2057 0.3026,-0.4631 0.3026,-0.77 0,-0.3766 -0.1208,-0.6836 -0.3652,-0.9208 -0.2421,-0.2395 -0.5534,-0.3581 -0.9338,-0.3581l-0.3091 0 0 -1.4111 0.1834 0c0.3989,0 0.7189,-0.0985 0.9589,-0.2961 0.2394,-0.197 0.3602,-0.4565 0.3602,-0.7793 0,-0.2933 -0.0936,-0.5442 -0.284,-0.7526 -0.1905,-0.2079 -0.4234,-0.3113 -0.6988,-0.3113 -0.6433,0 -1.015,0.4011 -1.1156,1.2005z"/>
  </g>
  <polygon class="fil5" points="8.39606e-015,-3.57353e-016 330,-3.57353e-016 330,120 8.39606e-015,120 "/>
 </g>
</svg>
